<svg width="100%" height="100%" viewBox="0 0 171 108">
    <g id="new-curve" transform="matrix(1,0,0,1,-283.523,-678.217)">
        <g transform="matrix(1.07704,-0.104737,0.10175,1.04633,-190.763,226.383)">
            <rect x="417.418" y="499.557" width="18.474" height="76.097" style="fill:rgb(66,67,62);"/>
        </g>
        <g transform="matrix(1.06165,-0.209475,0.203503,1.03138,-199.637,272.514)">
            <rect x="417.418" y="499.557" width="18.474" height="76.097" style="fill:rgb(66,67,62);"/>
        </g>
        <g transform="matrix(1.03619,-0.31194,0.303046,1.00664,-203.752,319.632)">
            <rect x="417.418" y="499.557" width="18.474" height="76.097" style="fill:rgb(66,67,62);"/>
        </g>
        <g transform="matrix(0.541297,0,0,1.05127,57.5757,180.52)">
            <rect x="417.418" y="499.557" width="18.474" height="76.097" style="fill:rgb(66,67,62);"/>
        </g>
        <g transform="matrix(0.50012,-0.207083,0.402181,0.971295,4.78201,283.267)">
            <rect x="417.418" y="499.557" width="18.474" height="76.097" style="fill:rgb(66,67,62);"/>
        </g>
        <g transform="matrix(8.66076,0,0,0.131411,-3331.63,649.997)">
            <path d="M434.044,285.024L434.486,355.421C434.486,355.421 428.93,482.252 426.115,518.573C423.27,555.278 417.418,575.654 417.418,575.654L417.418,499.557C417.418,499.557 423.092,479.892 425.863,444.137C428.625,408.492 434.044,285.024 434.044,285.024Z" style="fill:rgb(66,67,62);"/>
        </g>
        <g transform="matrix(8.66076,0,0,0.131411,-3331.63,699.997)">
            <path d="M436.253,256.095L436.694,326.403C436.694,326.403 430.416,469.06 427.204,510.602C425.493,532.726 417.418,575.654 417.418,575.654L417.418,499.557C417.418,499.557 423.855,476.133 426.979,435.739C430.119,395.162 436.253,256.095 436.253,256.095Z" style="fill:rgb(66,67,62);"/>
        </g>
    </g>
</svg>
