<svg width="100%" height="100%" viewBox="0 0 160 102">
    <g id="curve-right" transform="matrix(1,0,0,1,-399.385,-660.369)">
        <g transform="matrix(0.485955,0,0,1,196.54,160.963)">
            <rect x="417.418" y="499.557" width="18.474" height="76.097" style="fill:rgb(66,67,62);"/>
        </g>
        <g transform="matrix(0.449066,0.185719,-0.382174,0.92409,553.572,149.05)">
            <rect x="417.418" y="499.557" width="18.474" height="76.097" style="fill:rgb(66,67,62);"/>
        </g>
        <g transform="matrix(0.000292857,0.485955,-1.96916,0.0011867,1533.35,466.611)">
            <path d="M497.433,498.806C497.433,498.806 464.83,516.918 449.468,536.304C434.067,555.739 435.892,575.654 435.892,575.654L417.418,575.654C417.418,575.654 416.1,555.263 431.498,535.482C447.041,515.512 480.476,497.085 480.476,497.085L497.433,498.806Z" style="fill:rgb(66,67,62);"/>
        </g>
        <g transform="matrix(0.000292857,0.485955,-1.73431,0.00104517,1397.63,512.386)">
            <path d="M497.424,498.991C497.424,498.991 465.339,516.396 449.977,535.782C434.577,555.217 437.928,575.654 437.928,575.654L419.406,575.654C419.406,575.654 416.545,554.561 431.942,534.779C447.486,514.81 480.49,497.042 480.49,497.042L497.424,498.991Z" style="fill:rgb(66,67,62);"/>
        </g>
        <g transform="matrix(0.971065,0.0955305,-0.0979044,0.995196,75.0375,124.561)">
            <rect x="417.418" y="499.557" width="18.474" height="76.097" style="fill:rgb(66,67,62);"/>
        </g>
        <g transform="matrix(0.956915,0.190805,-0.195546,0.980694,170.131,96.5253)">
            <rect x="417.418" y="499.557" width="18.474" height="76.097" style="fill:rgb(66,67,62);"/>
        </g>
        <g transform="matrix(0.934025,0.282295,-0.28931,0.957235,266.229,79.3224)">
            <rect x="417.418" y="499.557" width="18.474" height="76.097" style="fill:rgb(66,67,62);"/>
        </g>
    </g>
</svg>
