<svg width="100%" height="100%" viewBox="0 0 171 108">
    <g id="curve-right" transform="matrix(1,0,0,-1,-283.523,785.686)">
        <g transform="matrix(-0.500094,0.207146,-0.402303,-0.971244,864.018,1150.86)">
            <rect x="417.418" y="499.557" width="18.474" height="76.097" style="fill:rgb(66,67,62);"/>
        </g>
        <g transform="matrix(-1.03555,0.314033,-0.305079,-1.00603,1007.17,1134.54)">
            <rect x="417.418" y="499.557" width="18.474" height="76.097" style="fill:rgb(66,67,62);"/>
        </g>
        <g transform="matrix(-1.06133,0.211112,-0.205092,-1.03107,925.865,1201.83)">
            <rect x="417.418" y="499.557" width="18.474" height="76.097" style="fill:rgb(66,67,62);"/>
        </g>
        <g transform="matrix(-1.07696,0.105597,-0.102586,-1.04625,838.135,1261.61)">
            <rect x="417.418" y="499.557" width="18.474" height="76.097" style="fill:rgb(66,67,62);"/>
        </g>
        <g transform="matrix(-0.541297,-6.62898e-17,1.28743e-16,-1.05127,519.47,1310.85)">
            <rect x="417.418" y="499.557" width="18.474" height="76.097" style="fill:rgb(66,67,62);"/>
        </g>
        <g transform="matrix(8.66076,0,0,0.131411,-3331.63,649.997)">
            <path d="M434.044,285.024L434.486,355.421C434.486,355.421 428.93,482.252 426.115,518.573C423.27,555.278 417.418,575.654 417.418,575.654L417.418,499.557C417.418,499.557 423.092,479.892 425.863,444.137C428.625,408.492 434.044,285.024 434.044,285.024Z" style="fill:rgb(66,67,62);"/>
        </g>
        <g transform="matrix(8.66076,0,0,0.131411,-3331.63,699.997)">
            <path d="M436.253,256.095L436.694,326.403C436.694,326.403 430.416,469.06 427.204,510.602C425.493,532.726 417.418,575.654 417.418,575.654L417.418,499.557C417.418,499.557 423.855,476.133 426.979,435.739C430.119,395.162 436.253,256.095 436.253,256.095Z" style="fill:rgb(66,67,62);"/>
        </g>
    </g>
</svg>
