<svg width="100%" height="100%" viewBox="0 0 160 80">
    <g transform="matrix(1.08212,0,0,1.05127,-421.703,-525.168)">
        <rect x="417.418" y="499.557" width="18.474" height="76.097" style="fill:rgb(66,67,62);"/>
    </g>
    <g transform="matrix(1.08212,0,0,1.05127,-381.697,-525.168)">
        <rect x="417.418" y="499.557" width="18.474" height="76.097" style="fill:rgb(66,67,62);"/>
    </g>
    <g transform="matrix(1.08212,0,0,1.05127,-341.697,-525.168)">
        <rect x="417.418" y="499.557" width="18.474" height="76.097" style="fill:rgb(66,67,62);"/>
    </g>
    <g transform="matrix(0.541297,0,0,1.05127,-225.947,-525.124)">
        <rect x="417.418" y="499.557" width="18.474" height="76.097" style="fill:rgb(66,67,62);"/>
    </g>
    <g transform="matrix(0.541297,0,0,1.05127,-75.9473,-525.124)">
        <rect x="417.418" y="499.557" width="18.474" height="76.097" style="fill:rgb(66,67,62);"/>
    </g>
    <g transform="matrix(8.66076,0,0,0.131411,-3615.16,-55.647)">
        <rect x="417.418" y="499.557" width="18.474" height="76.097" style="fill:rgb(66,67,62);"/>
    </g>
    <g transform="matrix(8.66076,0,0,0.131411,-3615.16,-5.64701)">
        <rect x="417.418" y="499.557" width="18.474" height="76.097" style="fill:rgb(66,67,62);"/>
    </g>
</svg>
