<svg width="100%" height="100%" viewBox="0 0 150 77">
    <g transform="matrix(0.975753,0,0,1,-378.913,-499.557)">
        <rect x="417.418" y="499.557" width="18.474" height="76.097" style="fill:rgb(66,67,62);"/>
    </g>
    <g transform="matrix(0.975753,0,0,1,-304.048,-499.557)">
        <rect x="417.418" y="499.557" width="18.474" height="76.097" style="fill:rgb(66,67,62);"/>
    </g>
    <g transform="matrix(0.975753,0,0,1,-341.48,-499.557)">
        <rect x="417.418" y="499.557" width="18.474" height="76.097" style="fill:rgb(66,67,62);"/>
    </g>
    <g transform="matrix(0.485955,0,0,1,-202.846,-499.557)">
        <rect x="417.418" y="499.557" width="18.474" height="76.097" style="fill:rgb(66,67,62);"/>
    </g>
    <g transform="matrix(0.485955,0,0,1,-61.9658,-499.487)">
        <rect x="417.418" y="499.557" width="18.474" height="76.097" style="fill:rgb(66,67,62);"/>
    </g>
    <g transform="matrix(0.000292857,0.485955,-1.96916,0.0011867,1133.45,-193.939)">
        <rect x="417.418" y="499.557" width="18.474" height="76.097" style="fill:rgb(66,67,62);"/>
    </g>
    <g transform="matrix(0.000292857,0.485955,-1.96916,0.0011867,1133.45,-146.861)">
        <rect x="417.418" y="499.557" width="18.474" height="76.097" style="fill:rgb(66,67,62);"/>
    </g>
</svg>
