<svg width="100%" height="100%" viewBox="0 0 340 207">
    <g id="switch-right" transform="matrix(1,0,0,-1,-92.1558,618.466)">
        <g transform="matrix(1,0,0,1,-132.131,-140.99)">
            <g transform="matrix(0.954975,-0.50893,0.494419,0.927746,-257.149,390.669)">
                <rect x="417.418" y="499.557" width="18.474" height="76.097" style="fill:rgb(66,67,62);"/>
            </g>
            <g transform="matrix(0.900677,-0.599807,0.582705,0.874996,-247.693,436.685)">
                <rect x="417.418" y="499.557" width="18.474" height="76.097" style="fill:rgb(66,67,62);"/>
            </g>
            <g transform="matrix(0.500094,-0.207146,0.402303,0.971244,-45.2647,253.262)">
                <rect x="417.418" y="499.557" width="18.474" height="76.097" style="fill:rgb(66,67,62);"/>
            </g>
            <g transform="matrix(-0.500164,0.206976,-0.401973,-0.971381,973.667,1025.73)">
                <rect x="417.418" y="499.557" width="18.474" height="76.097" style="fill:rgb(66,67,62);"/>
            </g>
            <g transform="matrix(-0.954676,0.509492,-0.494965,-0.927455,1186.55,888.868)">
                <rect x="417.418" y="499.557" width="18.474" height="76.097" style="fill:rgb(66,67,62);"/>
            </g>
            <g transform="matrix(-0.90048,0.600103,-0.582992,-0.874805,1176.77,842.594)">
                <rect x="417.418" y="499.557" width="18.474" height="76.097" style="fill:rgb(66,67,62);"/>
            </g>
            <g transform="matrix(8.0015,-3.31433,0.0502886,0.121408,-2977.69,2030.19)">
                <path d="M431.728,431.882C430.328,451.888 428.436,494.661 427.204,510.602C425.493,532.726 417.418,575.654 417.418,575.654L417.418,499.557C417.418,499.557 423.816,476.273 426.951,436.103C426.951,436.103 429.853,378.829 431.459,357.778C432.683,341.74 434.466,317.14 436.59,309.798C436.923,308.646 439.824,296.31 439.824,296.31L439.824,372.493C439.824,372.493 436.736,383.401 435.607,390.567C434.557,397.234 432.694,418.084 431.728,431.882Z" style="fill:rgb(66,67,62);"/>
            </g>
            <g transform="matrix(8.0015,-3.31433,0.0502886,0.121408,-2996.83,1984)">
                <path d="M430.405,442.901C428.918,463.79 427.274,503.627 426.115,518.573C423.27,555.278 417.418,575.654 417.418,575.654L417.418,499.557C417.418,499.557 423.676,467.479 425.257,451.239C427.373,429.505 428.503,391.48 430.114,369.156C431.363,351.841 433.703,324.795 434.922,317.297C436.07,310.234 439.825,296.399 439.825,296.399L439.825,372.479C439.825,372.479 435.976,386.201 435.035,393.24C433.465,404.978 431.585,426.318 430.405,442.901Z" style="fill:rgb(66,67,62);"/>
            </g>
        </g>
        <g transform="matrix(1,0,0,1,-191.367,-167.22)">
            <g transform="matrix(1.07704,-0.104737,0.10175,1.04633,-190.763,226.383)">
                <rect x="417.418" y="499.557" width="18.474" height="76.097" style="fill:rgb(66,67,62);"/>
            </g>
            <g transform="matrix(1.06165,-0.209475,0.203503,1.03138,-199.637,272.514)">
                <rect x="417.418" y="499.557" width="18.474" height="76.097" style="fill:rgb(66,67,62);"/>
            </g>
            <g transform="matrix(1.03619,-0.31194,0.303046,1.00664,-203.752,319.632)">
                <rect x="417.418" y="499.557" width="18.474" height="76.097" style="fill:rgb(66,67,62);"/>
            </g>
            <g transform="matrix(0.541297,0,0,1.05127,57.5757,180.52)">
                <rect x="417.418" y="499.557" width="18.474" height="76.097" style="fill:rgb(66,67,62);"/>
            </g>
            <g transform="matrix(0.50012,-0.207083,0.402181,0.971295,4.78201,283.267)">
                <rect x="417.418" y="499.557" width="18.474" height="76.097" style="fill:rgb(66,67,62);"/>
            </g>
            <g transform="matrix(8.66076,0,0,0.131411,-3331.63,649.997)">
                <path d="M434.044,285.024L434.486,355.421C434.486,355.421 428.93,482.252 426.115,518.573C423.27,555.278 417.418,575.654 417.418,575.654L417.418,499.557C417.418,499.557 423.092,479.892 425.863,444.137C428.625,408.492 434.044,285.024 434.044,285.024Z" style="fill:rgb(66,67,62);"/>
            </g>
            <g transform="matrix(8.66076,0,0,0.131411,-3331.63,699.997)">
                <path d="M436.253,256.095L436.694,326.403C436.694,326.403 430.416,469.06 427.204,510.602C425.493,532.726 417.418,575.654 417.418,575.654L417.418,499.557C417.418,499.557 423.855,476.133 426.979,435.739C430.119,395.162 436.253,256.095 436.253,256.095Z" style="fill:rgb(66,67,62);"/>
            </g>
        </g>
        <g transform="matrix(1,0,0,1,252.156,538.424)">
            <g transform="matrix(1.08212,0,0,1.05127,-421.703,-525.168)">
                <rect x="417.418" y="499.557" width="18.474" height="76.097" style="fill:rgb(66,67,62);"/>
            </g>
            <g transform="matrix(1.08212,0,0,1.05127,-381.697,-525.168)">
                <rect x="417.418" y="499.557" width="18.474" height="76.097" style="fill:rgb(66,67,62);"/>
            </g>
            <g transform="matrix(1.08212,0,0,1.05127,-341.697,-525.168)">
                <rect x="417.418" y="499.557" width="18.474" height="76.097" style="fill:rgb(66,67,62);"/>
            </g>
            <g transform="matrix(0.541297,0,0,1.05127,-225.947,-525.124)">
                <rect x="417.418" y="499.557" width="18.474" height="76.097" style="fill:rgb(66,67,62);"/>
            </g>
            <g transform="matrix(0.541297,0,0,1.05127,-75.9473,-525.124)">
                <rect x="417.418" y="499.557" width="18.474" height="76.097" style="fill:rgb(66,67,62);"/>
            </g>
            <g transform="matrix(8.66076,0,0,0.131411,-3615.16,-55.647)">
                <rect x="417.418" y="499.557" width="18.474" height="76.097" style="fill:rgb(66,67,62);"/>
            </g>
            <g transform="matrix(8.66076,0,0,0.131411,-3615.16,-5.64701)">
                <rect x="417.418" y="499.557" width="18.474" height="76.097" style="fill:rgb(66,67,62);"/>
            </g>
        </g>
        <g transform="matrix(1,0,0,1,92.1558,538.424)">
            <g transform="matrix(1.08212,0,0,1.05127,-421.703,-525.168)">
                <rect x="417.418" y="499.557" width="18.474" height="76.097" style="fill:rgb(66,67,62);"/>
            </g>
            <g transform="matrix(1.08212,0,0,1.05127,-381.697,-525.168)">
                <rect x="417.418" y="499.557" width="18.474" height="76.097" style="fill:rgb(66,67,62);"/>
            </g>
            <g transform="matrix(1.08212,0,0,1.05127,-341.697,-525.168)">
                <rect x="417.418" y="499.557" width="18.474" height="76.097" style="fill:rgb(66,67,62);"/>
            </g>
            <g transform="matrix(0.541297,0,0,1.05127,-225.947,-525.124)">
                <rect x="417.418" y="499.557" width="18.474" height="76.097" style="fill:rgb(66,67,62);"/>
            </g>
            <g transform="matrix(0.541297,0,0,1.05127,-75.9473,-525.124)">
                <rect x="417.418" y="499.557" width="18.474" height="76.097" style="fill:rgb(66,67,62);"/>
            </g>
            <g transform="matrix(8.66076,0,0,0.131411,-3615.16,-55.647)">
                <rect x="417.418" y="499.557" width="18.474" height="76.097" style="fill:rgb(66,67,62);"/>
            </g>
            <g transform="matrix(8.66076,0,0,0.131411,-3615.16,-5.64701)">
                <rect x="417.418" y="499.557" width="18.474" height="76.097" style="fill:rgb(66,67,62);"/>
            </g>
        </g>
    </g>
</svg>
