<svg width="100%" height="100%" viewBox="0 0 319 196" version="1.1">
    <g transform="matrix(0.975753,0,0,1,-378.376,-379.932)">
        <rect x="417.418" y="499.557" width="18.474" height="76.097" style="fill:rgb(66,67,62);"/>
    </g>
    <g transform="matrix(0.975753,0,0,1,-303.181,-379.932)">
        <rect x="417.418" y="499.557" width="18.474" height="76.097" style="fill:rgb(66,67,62);"/>
    </g>
    <g transform="matrix(0.975753,0,0,1,-340.779,-379.932)">
        <rect x="417.418" y="499.557" width="18.474" height="76.097" style="fill:rgb(66,67,62);"/>
    </g>
    <g transform="matrix(0.975753,0,0,1,-265.584,-379.932)">
        <rect x="417.418" y="499.557" width="18.474" height="76.097" style="fill:rgb(66,67,62);"/>
    </g>
    <g transform="matrix(0.975753,0,0,1,-190.389,-379.932)">
        <rect x="417.418" y="499.557" width="18.474" height="76.097" style="fill:rgb(66,67,62);"/>
    </g>
    <g transform="matrix(0.975753,0,0,1,-152.792,-379.932)">
        <rect x="417.418" y="499.557" width="18.474" height="76.097" style="fill:rgb(66,67,62);"/>
    </g>
    <g transform="matrix(0.975753,0,0,1,-227.986,-379.932)">
        <rect x="417.418" y="499.557" width="18.474" height="76.097" style="fill:rgb(66,67,62);"/>
    </g>
    <g transform="matrix(0.485955,0,0,1,-202.474,-379.932)">
        <rect x="417.418" y="499.557" width="18.474" height="76.097" style="fill:rgb(66,67,62);"/>
    </g>
    <g transform="matrix(0.485955,0,0,1,89.2563,-379.932)">
        <rect x="417.418" y="499.557" width="18.474" height="76.097" style="fill:rgb(66,67,62);"/>
    </g>
    <g transform="matrix(0.000292857,0.485955,-3.95066,0.00238084,2274.51,-75.0372)">
        <rect x="417.418" y="499.557" width="18.474" height="76.097" style="fill:rgb(66,67,62);"/>
    </g>
    <g transform="matrix(0.000292857,0.485955,-3.95066,0.00238084,2274.48,-27.9585)">
        <rect x="417.418" y="499.557" width="18.474" height="76.097" style="fill:rgb(66,67,62);"/>
    </g>
    <g transform="matrix(0.447324,-0.189877,0.39073,0.920505,-101.672,-377.079)">
        <rect x="417.418" y="499.557" width="18.474" height="76.097" style="fill:rgb(66,67,62);"/>
    </g>
    <g transform="matrix(0.346625,0.340593,-1.38013,1.40457,811.826,-852.819)">
        <path d="M312.97,617.66C337.774,607.516 366.679,592.522 385.129,578.916C403.843,565.116 416.1,555.263 431.498,535.482C447.041,515.512 480.476,497.085 480.476,497.085L497.433,498.806C497.433,498.806 464.83,516.918 449.468,536.304C434.067,555.739 421.568,566.322 402.39,580.412C383.475,594.309 367.918,605.189 329.32,619.726C289.72,634.642 239.069,648.268 239.069,648.268L226.096,645.005C226.096,645.005 286.149,628.63 312.97,617.66Z" style="fill:rgb(66,67,62);"/>
    </g>
    <g transform="matrix(0.346625,0.340593,-1.38013,1.40457,811.939,-805.863)">
        <path d="M315.35,618.041C340.154,607.896 372.393,593.181 393.42,579.804C414.818,566.192 434.045,547.594 454.829,528.771C476.492,509.151 500.04,489.182 500.04,489.182L517.364,490.898C517.364,490.898 493.605,510.691 472.73,529.76C452.175,548.536 432.201,567.575 410.74,581.474C389.588,595.173 370.095,605.668 331.497,620.206C291.897,635.121 239.069,648.268 239.069,648.268L226.096,645.005C226.096,645.005 288.529,629.01 315.35,618.041Z" style="fill:rgb(66,67,62);"/>
    </g>
    <g transform="matrix(0.831102,-0.511237,0.523941,0.851755,-428.857,-149.465)">
        <rect x="417.418" y="499.557" width="18.474" height="76.097" style="fill:rgb(66,67,62);"/>
    </g>
    <g transform="matrix(0.855812,-0.468699,0.480347,0.877079,-449.642,-163.412)">
        <rect x="417.418" y="499.557" width="18.474" height="76.097" style="fill:rgb(66,67,62);"/>
    </g>
    <g transform="matrix(0.88477,-0.411432,0.421656,0.906756,-460.68,-188.927)">
        <path d="M417.418,552.761L417.418,499.557L435.892,499.557L435.892,538.062L426.462,533.784L417.418,552.761Z" style="fill:rgb(66,67,62);"/>
    </g>
    <g transform="matrix(0.823238,-0.523805,0.536822,0.843696,-401.39,-159.928)">
        <rect x="417.418" y="499.557" width="18.474" height="76.097" style="fill:rgb(66,67,62);"/>
    </g>
    <g transform="matrix(0.856272,-0.467858,0.479484,0.877551,-352.893,-221.142)">
        <rect x="417.418" y="499.557" width="18.474" height="76.097" style="fill:rgb(66,67,62);"/>
    </g>
    <g transform="matrix(0.485955,0,0,-1,-202.843,695.138)">
        <rect x="417.418" y="499.557" width="18.474" height="76.097" style="fill:rgb(66,67,62);"/>
    </g>
    <g transform="matrix(0.971065,-0.0955305,-0.0979044,-0.995196,-324.347,731.383)">
        <rect x="417.418" y="499.557" width="18.474" height="76.097" style="fill:rgb(66,67,62);"/>
    </g>
    <g transform="matrix(0.956915,-0.190805,-0.195546,-0.980694,-230.235,757.142)">
        <rect x="417.418" y="499.557" width="18.474" height="76.097" style="fill:rgb(66,67,62);"/>
    </g>
    <g transform="matrix(0.934025,-0.282295,-0.28931,-0.957235,-134.096,772.338)">
        <path d="M435.892,553.327L427.221,555.884L417.418,524.237L417.418,575.654L435.892,575.654L435.892,553.327Z" style="fill:rgb(66,67,62);"/>
    </g>
</svg>
