<?xml version="1.0" encoding="UTF-8"?>
<svg xmlns="http://www.w3.org/2000/svg" xmlns:xlink="http://www.w3.org/1999/xlink"
     width="4096" height="4096" viewBox="-2048 -2048 4096 4096">
<defs>
</defs>

            <script type="text/javascript">
                <![CDATA[
                    var currentScale = 1.0;
                    var mainGroup = document.getElementById('main-group');
                    
                    function zoomIn() {
                        currentScale = Math.min(currentScale * 1.2, 3.0);
                        updateZoom();
                    }
                    
                    function zoomOut() {
                        currentScale = Math.max(currentScale / 1.2, 0.2);
                        updateZoom();
                    }
                    
                    function updateZoom() {
                        mainGroup.setAttribute('transform', 'scale(' + currentScale + ')');
                    }
                ]]>
            </script>
        

            <style>
                .zoom-btn {
                    fill: #f0f0f0;
                    stroke: #666;
                    stroke-width: 1;
                    cursor: pointer;
                }
                .zoom-btn:hover {
                    fill: #e0e0e0;
                }
                .zoom-text {
                    font-family: Arial;
                    user-select: none;
                    pointer-events: none;
                }
            </style>
        
<g>
<circle cx="-1900" cy="-1900" r="40" fill="#f0f0f0" stroke="#666" stroke-width="2" class="zoom-btn" onclick="zoomIn()" />
<text x="-1915" y="-1885" font-size="48" class="zoom-text">+</text>
</g>
<g>
<circle cx="-1900" cy="-1780" r="40" fill="#f0f0f0" stroke="#666" stroke-width="2" class="zoom-btn" onclick="zoomOut()" />
<text x="-1915" y="-1765" font-size="48" class="zoom-text">-</text>
</g>
<g id="main-group">
<g transform="translate(0,0) rotate(0)">

    <g transform="matrix(0.975753,0,0,1,-378.913,-499.557)">
        <rect x="417.418" y="499.557" width="18.474" height="76.097" style="fill:rgb(66,67,62);"/>
    </g>
    <g transform="matrix(0.975753,0,0,1,-304.048,-499.557)">
        <rect x="417.418" y="499.557" width="18.474" height="76.097" style="fill:rgb(66,67,62);"/>
    </g>
    <g transform="matrix(0.975753,0,0,1,-341.48,-499.557)">
        <rect x="417.418" y="499.557" width="18.474" height="76.097" style="fill:rgb(66,67,62);"/>
    </g>
    <g transform="matrix(0.485955,0,0,1,-202.846,-499.557)">
        <rect x="417.418" y="499.557" width="18.474" height="76.097" style="fill:rgb(66,67,62);"/>
    </g>
    <g transform="matrix(0.485955,0,0,1,-61.9658,-499.487)">
        <rect x="417.418" y="499.557" width="18.474" height="76.097" style="fill:rgb(66,67,62);"/>
    </g>
    <g transform="matrix(0.000292857,0.485955,-1.96916,0.0011867,1133.45,-193.939)">
        <rect x="417.418" y="499.557" width="18.474" height="76.097" style="fill:rgb(66,67,62);"/>
    </g>
    <g transform="matrix(0.000292857,0.485955,-1.96916,0.0011867,1133.45,-146.861)">
        <rect x="417.418" y="499.557" width="18.474" height="76.097" style="fill:rgb(66,67,62);"/>
    </g>

</g>
<g transform="translate(149.0,0.0) rotate(0)">

    <g id="curve-right" transform="matrix(1,0,0,1,-399.385,-660.369)">
        <g transform="matrix(0.485955,0,0,1,196.54,160.963)">
            <rect x="417.418" y="499.557" width="18.474" height="76.097" style="fill:rgb(66,67,62);"/>
        </g>
        <g transform="matrix(0.449066,0.185719,-0.382174,0.92409,553.572,149.05)">
            <rect x="417.418" y="499.557" width="18.474" height="76.097" style="fill:rgb(66,67,62);"/>
        </g>
        <g transform="matrix(0.000292857,0.485955,-1.96916,0.0011867,1533.35,466.611)">
            <path d="M497.433,498.806C497.433,498.806 464.83,516.918 449.468,536.304C434.067,555.739 435.892,575.654 435.892,575.654L417.418,575.654C417.418,575.654 416.1,555.263 431.498,535.482C447.041,515.512 480.476,497.085 480.476,497.085L497.433,498.806Z" style="fill:rgb(66,67,62);"/>
        </g>
        <g transform="matrix(0.000292857,0.485955,-1.73431,0.00104517,1397.63,512.386)">
            <path d="M497.424,498.991C497.424,498.991 465.339,516.396 449.977,535.782C434.577,555.217 437.928,575.654 437.928,575.654L419.406,575.654C419.406,575.654 416.545,554.561 431.942,534.779C447.486,514.81 480.49,497.042 480.49,497.042L497.424,498.991Z" style="fill:rgb(66,67,62);"/>
        </g>
        <g transform="matrix(0.971065,0.0955305,-0.0979044,0.995196,75.0375,124.561)">
            <rect x="417.418" y="499.557" width="18.474" height="76.097" style="fill:rgb(66,67,62);"/>
        </g>
        <g transform="matrix(0.956915,0.190805,-0.195546,0.980694,170.131,96.5253)">
            <rect x="417.418" y="499.557" width="18.474" height="76.097" style="fill:rgb(66,67,62);"/>
        </g>
        <g transform="matrix(0.934025,0.282295,-0.28931,0.957235,266.229,79.3224)">
            <rect x="417.418" y="499.557" width="18.474" height="76.097" style="fill:rgb(66,67,62);"/>
        </g>
    </g>

</g>
<g transform="translate(308.0,31.2) rotate(22.5)">

    <g id="curve-right" transform="matrix(1,0,0,1,-399.385,-660.369)">
        <g transform="matrix(0.485955,0,0,1,196.54,160.963)">
            <rect x="417.418" y="499.557" width="18.474" height="76.097" style="fill:rgb(66,67,62);"/>
        </g>
        <g transform="matrix(0.449066,0.185719,-0.382174,0.92409,553.572,149.05)">
            <rect x="417.418" y="499.557" width="18.474" height="76.097" style="fill:rgb(66,67,62);"/>
        </g>
        <g transform="matrix(0.000292857,0.485955,-1.96916,0.0011867,1533.35,466.611)">
            <path d="M497.433,498.806C497.433,498.806 464.83,516.918 449.468,536.304C434.067,555.739 435.892,575.654 435.892,575.654L417.418,575.654C417.418,575.654 416.1,555.263 431.498,535.482C447.041,515.512 480.476,497.085 480.476,497.085L497.433,498.806Z" style="fill:rgb(66,67,62);"/>
        </g>
        <g transform="matrix(0.000292857,0.485955,-1.73431,0.00104517,1397.63,512.386)">
            <path d="M497.424,498.991C497.424,498.991 465.339,516.396 449.977,535.782C434.577,555.217 437.928,575.654 437.928,575.654L419.406,575.654C419.406,575.654 416.545,554.561 431.942,534.779C447.486,514.81 480.49,497.042 480.49,497.042L497.424,498.991Z" style="fill:rgb(66,67,62);"/>
        </g>
        <g transform="matrix(0.971065,0.0955305,-0.0979044,0.995196,75.0375,124.561)">
            <rect x="417.418" y="499.557" width="18.474" height="76.097" style="fill:rgb(66,67,62);"/>
        </g>
        <g transform="matrix(0.956915,0.190805,-0.195546,0.980694,170.131,96.5253)">
            <rect x="417.418" y="499.557" width="18.474" height="76.097" style="fill:rgb(66,67,62);"/>
        </g>
        <g transform="matrix(0.934025,0.282295,-0.28931,0.957235,266.229,79.3224)">
            <rect x="417.418" y="499.557" width="18.474" height="76.097" style="fill:rgb(66,67,62);"/>
        </g>
    </g>

</g>
<g transform="translate(442.9571225795038,120.87170716040143) rotate(45.0)">

    <g transform="matrix(0.975753,0,0,1,-378.913,-499.557)">
        <rect x="417.418" y="499.557" width="18.474" height="76.097" style="fill:rgb(66,67,62);"/>
    </g>
    <g transform="matrix(0.975753,0,0,1,-304.048,-499.557)">
        <rect x="417.418" y="499.557" width="18.474" height="76.097" style="fill:rgb(66,67,62);"/>
    </g>
    <g transform="matrix(0.975753,0,0,1,-341.48,-499.557)">
        <rect x="417.418" y="499.557" width="18.474" height="76.097" style="fill:rgb(66,67,62);"/>
    </g>
    <g transform="matrix(0.485955,0,0,1,-202.846,-499.557)">
        <rect x="417.418" y="499.557" width="18.474" height="76.097" style="fill:rgb(66,67,62);"/>
    </g>
    <g transform="matrix(0.485955,0,0,1,-61.9658,-499.487)">
        <rect x="417.418" y="499.557" width="18.474" height="76.097" style="fill:rgb(66,67,62);"/>
    </g>
    <g transform="matrix(0.000292857,0.485955,-1.96916,0.0011867,1133.45,-193.939)">
        <rect x="417.418" y="499.557" width="18.474" height="76.097" style="fill:rgb(66,67,62);"/>
    </g>
    <g transform="matrix(0.000292857,0.485955,-1.96916,0.0011867,1133.45,-146.861)">
        <rect x="417.418" y="499.557" width="18.474" height="76.097" style="fill:rgb(66,67,62);"/>
    </g>

</g>
<g transform="translate(548.3160329762994,226.23061755719698) rotate(45.0)">

    <g id="curve-right" transform="matrix(1,0,0,1,-399.385,-660.369)">
        <g transform="matrix(0.485955,0,0,1,196.54,160.963)">
            <rect x="417.418" y="499.557" width="18.474" height="76.097" style="fill:rgb(66,67,62);"/>
        </g>
        <g transform="matrix(0.449066,0.185719,-0.382174,0.92409,553.572,149.05)">
            <rect x="417.418" y="499.557" width="18.474" height="76.097" style="fill:rgb(66,67,62);"/>
        </g>
        <g transform="matrix(0.000292857,0.485955,-1.96916,0.0011867,1533.35,466.611)">
            <path d="M497.433,498.806C497.433,498.806 464.83,516.918 449.468,536.304C434.067,555.739 435.892,575.654 435.892,575.654L417.418,575.654C417.418,575.654 416.1,555.263 431.498,535.482C447.041,515.512 480.476,497.085 480.476,497.085L497.433,498.806Z" style="fill:rgb(66,67,62);"/>
        </g>
        <g transform="matrix(0.000292857,0.485955,-1.73431,0.00104517,1397.63,512.386)">
            <path d="M497.424,498.991C497.424,498.991 465.339,516.396 449.977,535.782C434.577,555.217 437.928,575.654 437.928,575.654L419.406,575.654C419.406,575.654 416.545,554.561 431.942,534.779C447.486,514.81 480.49,497.042 480.49,497.042L497.424,498.991Z" style="fill:rgb(66,67,62);"/>
        </g>
        <g transform="matrix(0.971065,0.0955305,-0.0979044,0.995196,75.0375,124.561)">
            <rect x="417.418" y="499.557" width="18.474" height="76.097" style="fill:rgb(66,67,62);"/>
        </g>
        <g transform="matrix(0.956915,0.190805,-0.195546,0.980694,170.131,96.5253)">
            <rect x="417.418" y="499.557" width="18.474" height="76.097" style="fill:rgb(66,67,62);"/>
        </g>
        <g transform="matrix(0.934025,0.282295,-0.28931,0.957235,266.229,79.3224)">
            <rect x="417.418" y="499.557" width="18.474" height="76.097" style="fill:rgb(66,67,62);"/>
        </g>
    </g>

</g>
<g transform="translate(638.6842796119402,360.7223273388783) rotate(67.5)">

    <g id="curve-right" transform="matrix(1,0,0,1,-399.385,-660.369)">
        <g transform="matrix(0.485955,0,0,1,196.54,160.963)">
            <rect x="417.418" y="499.557" width="18.474" height="76.097" style="fill:rgb(66,67,62);"/>
        </g>
        <g transform="matrix(0.449066,0.185719,-0.382174,0.92409,553.572,149.05)">
            <rect x="417.418" y="499.557" width="18.474" height="76.097" style="fill:rgb(66,67,62);"/>
        </g>
        <g transform="matrix(0.000292857,0.485955,-1.96916,0.0011867,1533.35,466.611)">
            <path d="M497.433,498.806C497.433,498.806 464.83,516.918 449.468,536.304C434.067,555.739 435.892,575.654 435.892,575.654L417.418,575.654C417.418,575.654 416.1,555.263 431.498,535.482C447.041,515.512 480.476,497.085 480.476,497.085L497.433,498.806Z" style="fill:rgb(66,67,62);"/>
        </g>
        <g transform="matrix(0.000292857,0.485955,-1.73431,0.00104517,1397.63,512.386)">
            <path d="M497.424,498.991C497.424,498.991 465.339,516.396 449.977,535.782C434.577,555.217 437.928,575.654 437.928,575.654L419.406,575.654C419.406,575.654 416.545,554.561 431.942,534.779C447.486,514.81 480.49,497.042 480.49,497.042L497.424,498.991Z" style="fill:rgb(66,67,62);"/>
        </g>
        <g transform="matrix(0.971065,0.0955305,-0.0979044,0.995196,75.0375,124.561)">
            <rect x="417.418" y="499.557" width="18.474" height="76.097" style="fill:rgb(66,67,62);"/>
        </g>
        <g transform="matrix(0.956915,0.190805,-0.195546,0.980694,170.131,96.5253)">
            <rect x="417.418" y="499.557" width="18.474" height="76.097" style="fill:rgb(66,67,62);"/>
        </g>
        <g transform="matrix(0.934025,0.282295,-0.28931,0.957235,266.229,79.3224)">
            <rect x="417.418" y="499.557" width="18.474" height="76.097" style="fill:rgb(66,67,62);"/>
        </g>
    </g>

</g>
<g transform="translate(670.7059039436373,519.5588960979637) rotate(90.0)">

    <g id="curve-right" transform="matrix(1,0,0,1,-399.385,-660.369)">
        <g transform="matrix(0.485955,0,0,1,196.54,160.963)">
            <rect x="417.418" y="499.557" width="18.474" height="76.097" style="fill:rgb(66,67,62);"/>
        </g>
        <g transform="matrix(0.449066,0.185719,-0.382174,0.92409,553.572,149.05)">
            <rect x="417.418" y="499.557" width="18.474" height="76.097" style="fill:rgb(66,67,62);"/>
        </g>
        <g transform="matrix(0.000292857,0.485955,-1.96916,0.0011867,1533.35,466.611)">
            <path d="M497.433,498.806C497.433,498.806 464.83,516.918 449.468,536.304C434.067,555.739 435.892,575.654 435.892,575.654L417.418,575.654C417.418,575.654 416.1,555.263 431.498,535.482C447.041,515.512 480.476,497.085 480.476,497.085L497.433,498.806Z" style="fill:rgb(66,67,62);"/>
        </g>
        <g transform="matrix(0.000292857,0.485955,-1.73431,0.00104517,1397.63,512.386)">
            <path d="M497.424,498.991C497.424,498.991 465.339,516.396 449.977,535.782C434.577,555.217 437.928,575.654 437.928,575.654L419.406,575.654C419.406,575.654 416.545,554.561 431.942,534.779C447.486,514.81 480.49,497.042 480.49,497.042L497.424,498.991Z" style="fill:rgb(66,67,62);"/>
        </g>
        <g transform="matrix(0.971065,0.0955305,-0.0979044,0.995196,75.0375,124.561)">
            <rect x="417.418" y="499.557" width="18.474" height="76.097" style="fill:rgb(66,67,62);"/>
        </g>
        <g transform="matrix(0.956915,0.190805,-0.195546,0.980694,170.131,96.5253)">
            <rect x="417.418" y="499.557" width="18.474" height="76.097" style="fill:rgb(66,67,62);"/>
        </g>
        <g transform="matrix(0.934025,0.282295,-0.28931,0.957235,266.229,79.3224)">
            <rect x="417.418" y="499.557" width="18.474" height="76.097" style="fill:rgb(66,67,62);"/>
        </g>
    </g>

</g>
<g transform="translate(639.5059039436373,678.5588960979637) rotate(112.5)">

    <g id="curve-right" transform="matrix(1,0,0,1,-399.385,-660.369)">
        <g transform="matrix(0.485955,0,0,1,196.54,160.963)">
            <rect x="417.418" y="499.557" width="18.474" height="76.097" style="fill:rgb(66,67,62);"/>
        </g>
        <g transform="matrix(0.449066,0.185719,-0.382174,0.92409,553.572,149.05)">
            <rect x="417.418" y="499.557" width="18.474" height="76.097" style="fill:rgb(66,67,62);"/>
        </g>
        <g transform="matrix(0.000292857,0.485955,-1.96916,0.0011867,1533.35,466.611)">
            <path d="M497.433,498.806C497.433,498.806 464.83,516.918 449.468,536.304C434.067,555.739 435.892,575.654 435.892,575.654L417.418,575.654C417.418,575.654 416.1,555.263 431.498,535.482C447.041,515.512 480.476,497.085 480.476,497.085L497.433,498.806Z" style="fill:rgb(66,67,62);"/>
        </g>
        <g transform="matrix(0.000292857,0.485955,-1.73431,0.00104517,1397.63,512.386)">
            <path d="M497.424,498.991C497.424,498.991 465.339,516.396 449.977,535.782C434.577,555.217 437.928,575.654 437.928,575.654L419.406,575.654C419.406,575.654 416.545,554.561 431.942,534.779C447.486,514.81 480.49,497.042 480.49,497.042L497.424,498.991Z" style="fill:rgb(66,67,62);"/>
        </g>
        <g transform="matrix(0.971065,0.0955305,-0.0979044,0.995196,75.0375,124.561)">
            <rect x="417.418" y="499.557" width="18.474" height="76.097" style="fill:rgb(66,67,62);"/>
        </g>
        <g transform="matrix(0.956915,0.190805,-0.195546,0.980694,170.131,96.5253)">
            <rect x="417.418" y="499.557" width="18.474" height="76.097" style="fill:rgb(66,67,62);"/>
        </g>
        <g transform="matrix(0.934025,0.282295,-0.28931,0.957235,266.229,79.3224)">
            <rect x="417.418" y="499.557" width="18.474" height="76.097" style="fill:rgb(66,67,62);"/>
        </g>
    </g>

</g>
<g transform="translate(549.8341967832359,813.5160186774675) rotate(135.0)">

    <g id="curve-right" transform="matrix(1,0,0,1,-399.385,-660.369)">
        <g transform="matrix(0.485955,0,0,1,196.54,160.963)">
            <rect x="417.418" y="499.557" width="18.474" height="76.097" style="fill:rgb(66,67,62);"/>
        </g>
        <g transform="matrix(0.449066,0.185719,-0.382174,0.92409,553.572,149.05)">
            <rect x="417.418" y="499.557" width="18.474" height="76.097" style="fill:rgb(66,67,62);"/>
        </g>
        <g transform="matrix(0.000292857,0.485955,-1.96916,0.0011867,1533.35,466.611)">
            <path d="M497.433,498.806C497.433,498.806 464.83,516.918 449.468,536.304C434.067,555.739 435.892,575.654 435.892,575.654L417.418,575.654C417.418,575.654 416.1,555.263 431.498,535.482C447.041,515.512 480.476,497.085 480.476,497.085L497.433,498.806Z" style="fill:rgb(66,67,62);"/>
        </g>
        <g transform="matrix(0.000292857,0.485955,-1.73431,0.00104517,1397.63,512.386)">
            <path d="M497.424,498.991C497.424,498.991 465.339,516.396 449.977,535.782C434.577,555.217 437.928,575.654 437.928,575.654L419.406,575.654C419.406,575.654 416.545,554.561 431.942,534.779C447.486,514.81 480.49,497.042 480.49,497.042L497.424,498.991Z" style="fill:rgb(66,67,62);"/>
        </g>
        <g transform="matrix(0.971065,0.0955305,-0.0979044,0.995196,75.0375,124.561)">
            <rect x="417.418" y="499.557" width="18.474" height="76.097" style="fill:rgb(66,67,62);"/>
        </g>
        <g transform="matrix(0.956915,0.190805,-0.195546,0.980694,170.131,96.5253)">
            <rect x="417.418" y="499.557" width="18.474" height="76.097" style="fill:rgb(66,67,62);"/>
        </g>
        <g transform="matrix(0.934025,0.282295,-0.28931,0.957235,266.229,79.3224)">
            <rect x="417.418" y="499.557" width="18.474" height="76.097" style="fill:rgb(66,67,62);"/>
        </g>
    </g>

</g>
<g transform="translate(415.3424870015546,903.8842653131082) rotate(157.5)">

    <g id="curve-right" transform="matrix(1,0,0,1,-399.385,-660.369)">
        <g transform="matrix(0.485955,0,0,1,196.54,160.963)">
            <rect x="417.418" y="499.557" width="18.474" height="76.097" style="fill:rgb(66,67,62);"/>
        </g>
        <g transform="matrix(0.449066,0.185719,-0.382174,0.92409,553.572,149.05)">
            <rect x="417.418" y="499.557" width="18.474" height="76.097" style="fill:rgb(66,67,62);"/>
        </g>
        <g transform="matrix(0.000292857,0.485955,-1.96916,0.0011867,1533.35,466.611)">
            <path d="M497.433,498.806C497.433,498.806 464.83,516.918 449.468,536.304C434.067,555.739 435.892,575.654 435.892,575.654L417.418,575.654C417.418,575.654 416.1,555.263 431.498,535.482C447.041,515.512 480.476,497.085 480.476,497.085L497.433,498.806Z" style="fill:rgb(66,67,62);"/>
        </g>
        <g transform="matrix(0.000292857,0.485955,-1.73431,0.00104517,1397.63,512.386)">
            <path d="M497.424,498.991C497.424,498.991 465.339,516.396 449.977,535.782C434.577,555.217 437.928,575.654 437.928,575.654L419.406,575.654C419.406,575.654 416.545,554.561 431.942,534.779C447.486,514.81 480.49,497.042 480.49,497.042L497.424,498.991Z" style="fill:rgb(66,67,62);"/>
        </g>
        <g transform="matrix(0.971065,0.0955305,-0.0979044,0.995196,75.0375,124.561)">
            <rect x="417.418" y="499.557" width="18.474" height="76.097" style="fill:rgb(66,67,62);"/>
        </g>
        <g transform="matrix(0.956915,0.190805,-0.195546,0.980694,170.131,96.5253)">
            <rect x="417.418" y="499.557" width="18.474" height="76.097" style="fill:rgb(66,67,62);"/>
        </g>
        <g transform="matrix(0.934025,0.282295,-0.28931,0.957235,266.229,79.3224)">
            <rect x="417.418" y="499.557" width="18.474" height="76.097" style="fill:rgb(66,67,62);"/>
        </g>
    </g>

</g>
<g transform="translate(256.5059182424692,935.9058896448054) rotate(180.0)">

    <g transform="matrix(0.975753,0,0,1,-378.913,-499.557)">
        <rect x="417.418" y="499.557" width="18.474" height="76.097" style="fill:rgb(66,67,62);"/>
    </g>
    <g transform="matrix(0.975753,0,0,1,-304.048,-499.557)">
        <rect x="417.418" y="499.557" width="18.474" height="76.097" style="fill:rgb(66,67,62);"/>
    </g>
    <g transform="matrix(0.975753,0,0,1,-341.48,-499.557)">
        <rect x="417.418" y="499.557" width="18.474" height="76.097" style="fill:rgb(66,67,62);"/>
    </g>
    <g transform="matrix(0.485955,0,0,1,-202.846,-499.557)">
        <rect x="417.418" y="499.557" width="18.474" height="76.097" style="fill:rgb(66,67,62);"/>
    </g>
    <g transform="matrix(0.485955,0,0,1,-61.9658,-499.487)">
        <rect x="417.418" y="499.557" width="18.474" height="76.097" style="fill:rgb(66,67,62);"/>
    </g>
    <g transform="matrix(0.000292857,0.485955,-1.96916,0.0011867,1133.45,-193.939)">
        <rect x="417.418" y="499.557" width="18.474" height="76.097" style="fill:rgb(66,67,62);"/>
    </g>
    <g transform="matrix(0.000292857,0.485955,-1.96916,0.0011867,1133.45,-146.861)">
        <rect x="417.418" y="499.557" width="18.474" height="76.097" style="fill:rgb(66,67,62);"/>
    </g>

</g>
<g transform="translate(107.50591824246919,935.9058896448054) rotate(180.0)">

    <g transform="matrix(0.975753,0,0,1,-378.913,-499.557)">
        <rect x="417.418" y="499.557" width="18.474" height="76.097" style="fill:rgb(66,67,62);"/>
    </g>
    <g transform="matrix(0.975753,0,0,1,-304.048,-499.557)">
        <rect x="417.418" y="499.557" width="18.474" height="76.097" style="fill:rgb(66,67,62);"/>
    </g>
    <g transform="matrix(0.975753,0,0,1,-341.48,-499.557)">
        <rect x="417.418" y="499.557" width="18.474" height="76.097" style="fill:rgb(66,67,62);"/>
    </g>
    <g transform="matrix(0.485955,0,0,1,-202.846,-499.557)">
        <rect x="417.418" y="499.557" width="18.474" height="76.097" style="fill:rgb(66,67,62);"/>
    </g>
    <g transform="matrix(0.485955,0,0,1,-61.9658,-499.487)">
        <rect x="417.418" y="499.557" width="18.474" height="76.097" style="fill:rgb(66,67,62);"/>
    </g>
    <g transform="matrix(0.000292857,0.485955,-1.96916,0.0011867,1133.45,-193.939)">
        <rect x="417.418" y="499.557" width="18.474" height="76.097" style="fill:rgb(66,67,62);"/>
    </g>
    <g transform="matrix(0.000292857,0.485955,-1.96916,0.0011867,1133.45,-146.861)">
        <rect x="417.418" y="499.557" width="18.474" height="76.097" style="fill:rgb(66,67,62);"/>
    </g>

</g>
<g transform="translate(-41.49408175753081,935.9058896448054) rotate(180.0)">

    <g id="curve-right" transform="matrix(1,0,0,1,-399.385,-660.369)">
        <g transform="matrix(0.485955,0,0,1,196.54,160.963)">
            <rect x="417.418" y="499.557" width="18.474" height="76.097" style="fill:rgb(66,67,62);"/>
        </g>
        <g transform="matrix(0.449066,0.185719,-0.382174,0.92409,553.572,149.05)">
            <rect x="417.418" y="499.557" width="18.474" height="76.097" style="fill:rgb(66,67,62);"/>
        </g>
        <g transform="matrix(0.000292857,0.485955,-1.96916,0.0011867,1533.35,466.611)">
            <path d="M497.433,498.806C497.433,498.806 464.83,516.918 449.468,536.304C434.067,555.739 435.892,575.654 435.892,575.654L417.418,575.654C417.418,575.654 416.1,555.263 431.498,535.482C447.041,515.512 480.476,497.085 480.476,497.085L497.433,498.806Z" style="fill:rgb(66,67,62);"/>
        </g>
        <g transform="matrix(0.000292857,0.485955,-1.73431,0.00104517,1397.63,512.386)">
            <path d="M497.424,498.991C497.424,498.991 465.339,516.396 449.977,535.782C434.577,555.217 437.928,575.654 437.928,575.654L419.406,575.654C419.406,575.654 416.545,554.561 431.942,534.779C447.486,514.81 480.49,497.042 480.49,497.042L497.424,498.991Z" style="fill:rgb(66,67,62);"/>
        </g>
        <g transform="matrix(0.971065,0.0955305,-0.0979044,0.995196,75.0375,124.561)">
            <rect x="417.418" y="499.557" width="18.474" height="76.097" style="fill:rgb(66,67,62);"/>
        </g>
        <g transform="matrix(0.956915,0.190805,-0.195546,0.980694,170.131,96.5253)">
            <rect x="417.418" y="499.557" width="18.474" height="76.097" style="fill:rgb(66,67,62);"/>
        </g>
        <g transform="matrix(0.934025,0.282295,-0.28931,0.957235,266.229,79.3224)">
            <rect x="417.418" y="499.557" width="18.474" height="76.097" style="fill:rgb(66,67,62);"/>
        </g>
    </g>

</g>
<g transform="translate(-200.4940817575308,904.7058896448054) rotate(202.5)">

    <g id="curve-right" transform="matrix(1,0,0,1,-399.385,-660.369)">
        <g transform="matrix(0.485955,0,0,1,196.54,160.963)">
            <rect x="417.418" y="499.557" width="18.474" height="76.097" style="fill:rgb(66,67,62);"/>
        </g>
        <g transform="matrix(0.449066,0.185719,-0.382174,0.92409,553.572,149.05)">
            <rect x="417.418" y="499.557" width="18.474" height="76.097" style="fill:rgb(66,67,62);"/>
        </g>
        <g transform="matrix(0.000292857,0.485955,-1.96916,0.0011867,1533.35,466.611)">
            <path d="M497.433,498.806C497.433,498.806 464.83,516.918 449.468,536.304C434.067,555.739 435.892,575.654 435.892,575.654L417.418,575.654C417.418,575.654 416.1,555.263 431.498,535.482C447.041,515.512 480.476,497.085 480.476,497.085L497.433,498.806Z" style="fill:rgb(66,67,62);"/>
        </g>
        <g transform="matrix(0.000292857,0.485955,-1.73431,0.00104517,1397.63,512.386)">
            <path d="M497.424,498.991C497.424,498.991 465.339,516.396 449.977,535.782C434.577,555.217 437.928,575.654 437.928,575.654L419.406,575.654C419.406,575.654 416.545,554.561 431.942,534.779C447.486,514.81 480.49,497.042 480.49,497.042L497.424,498.991Z" style="fill:rgb(66,67,62);"/>
        </g>
        <g transform="matrix(0.971065,0.0955305,-0.0979044,0.995196,75.0375,124.561)">
            <rect x="417.418" y="499.557" width="18.474" height="76.097" style="fill:rgb(66,67,62);"/>
        </g>
        <g transform="matrix(0.956915,0.190805,-0.195546,0.980694,170.131,96.5253)">
            <rect x="417.418" y="499.557" width="18.474" height="76.097" style="fill:rgb(66,67,62);"/>
        </g>
        <g transform="matrix(0.934025,0.282295,-0.28931,0.957235,266.229,79.3224)">
            <rect x="417.418" y="499.557" width="18.474" height="76.097" style="fill:rgb(66,67,62);"/>
        </g>
    </g>

</g>
<g transform="translate(-335.4512043370346,815.034182484404) rotate(225.0)">

    <g transform="matrix(0.975753,0,0,1,-378.913,-499.557)">
        <rect x="417.418" y="499.557" width="18.474" height="76.097" style="fill:rgb(66,67,62);"/>
    </g>
    <g transform="matrix(0.975753,0,0,1,-304.048,-499.557)">
        <rect x="417.418" y="499.557" width="18.474" height="76.097" style="fill:rgb(66,67,62);"/>
    </g>
    <g transform="matrix(0.975753,0,0,1,-341.48,-499.557)">
        <rect x="417.418" y="499.557" width="18.474" height="76.097" style="fill:rgb(66,67,62);"/>
    </g>
    <g transform="matrix(0.485955,0,0,1,-202.846,-499.557)">
        <rect x="417.418" y="499.557" width="18.474" height="76.097" style="fill:rgb(66,67,62);"/>
    </g>
    <g transform="matrix(0.485955,0,0,1,-61.9658,-499.487)">
        <rect x="417.418" y="499.557" width="18.474" height="76.097" style="fill:rgb(66,67,62);"/>
    </g>
    <g transform="matrix(0.000292857,0.485955,-1.96916,0.0011867,1133.45,-193.939)">
        <rect x="417.418" y="499.557" width="18.474" height="76.097" style="fill:rgb(66,67,62);"/>
    </g>
    <g transform="matrix(0.000292857,0.485955,-1.96916,0.0011867,1133.45,-146.861)">
        <rect x="417.418" y="499.557" width="18.474" height="76.097" style="fill:rgb(66,67,62);"/>
    </g>

</g>
<g transform="translate(-440.81011473383023,709.6752720876085) rotate(225.0)">

    <g id="curve-right" transform="matrix(1,0,0,1,-399.385,-660.369)">
        <g transform="matrix(0.485955,0,0,1,196.54,160.963)">
            <rect x="417.418" y="499.557" width="18.474" height="76.097" style="fill:rgb(66,67,62);"/>
        </g>
        <g transform="matrix(0.449066,0.185719,-0.382174,0.92409,553.572,149.05)">
            <rect x="417.418" y="499.557" width="18.474" height="76.097" style="fill:rgb(66,67,62);"/>
        </g>
        <g transform="matrix(0.000292857,0.485955,-1.96916,0.0011867,1533.35,466.611)">
            <path d="M497.433,498.806C497.433,498.806 464.83,516.918 449.468,536.304C434.067,555.739 435.892,575.654 435.892,575.654L417.418,575.654C417.418,575.654 416.1,555.263 431.498,535.482C447.041,515.512 480.476,497.085 480.476,497.085L497.433,498.806Z" style="fill:rgb(66,67,62);"/>
        </g>
        <g transform="matrix(0.000292857,0.485955,-1.73431,0.00104517,1397.63,512.386)">
            <path d="M497.424,498.991C497.424,498.991 465.339,516.396 449.977,535.782C434.577,555.217 437.928,575.654 437.928,575.654L419.406,575.654C419.406,575.654 416.545,554.561 431.942,534.779C447.486,514.81 480.49,497.042 480.49,497.042L497.424,498.991Z" style="fill:rgb(66,67,62);"/>
        </g>
        <g transform="matrix(0.971065,0.0955305,-0.0979044,0.995196,75.0375,124.561)">
            <rect x="417.418" y="499.557" width="18.474" height="76.097" style="fill:rgb(66,67,62);"/>
        </g>
        <g transform="matrix(0.956915,0.190805,-0.195546,0.980694,170.131,96.5253)">
            <rect x="417.418" y="499.557" width="18.474" height="76.097" style="fill:rgb(66,67,62);"/>
        </g>
        <g transform="matrix(0.934025,0.282295,-0.28931,0.957235,266.229,79.3224)">
            <rect x="417.418" y="499.557" width="18.474" height="76.097" style="fill:rgb(66,67,62);"/>
        </g>
    </g>

</g>
<g transform="translate(-531.1783613694711,575.1835623059271) rotate(247.5)">

    <g id="curve-right" transform="matrix(1,0,0,1,-399.385,-660.369)">
        <g transform="matrix(0.485955,0,0,1,196.54,160.963)">
            <rect x="417.418" y="499.557" width="18.474" height="76.097" style="fill:rgb(66,67,62);"/>
        </g>
        <g transform="matrix(0.449066,0.185719,-0.382174,0.92409,553.572,149.05)">
            <rect x="417.418" y="499.557" width="18.474" height="76.097" style="fill:rgb(66,67,62);"/>
        </g>
        <g transform="matrix(0.000292857,0.485955,-1.96916,0.0011867,1533.35,466.611)">
            <path d="M497.433,498.806C497.433,498.806 464.83,516.918 449.468,536.304C434.067,555.739 435.892,575.654 435.892,575.654L417.418,575.654C417.418,575.654 416.1,555.263 431.498,535.482C447.041,515.512 480.476,497.085 480.476,497.085L497.433,498.806Z" style="fill:rgb(66,67,62);"/>
        </g>
        <g transform="matrix(0.000292857,0.485955,-1.73431,0.00104517,1397.63,512.386)">
            <path d="M497.424,498.991C497.424,498.991 465.339,516.396 449.977,535.782C434.577,555.217 437.928,575.654 437.928,575.654L419.406,575.654C419.406,575.654 416.545,554.561 431.942,534.779C447.486,514.81 480.49,497.042 480.49,497.042L497.424,498.991Z" style="fill:rgb(66,67,62);"/>
        </g>
        <g transform="matrix(0.971065,0.0955305,-0.0979044,0.995196,75.0375,124.561)">
            <rect x="417.418" y="499.557" width="18.474" height="76.097" style="fill:rgb(66,67,62);"/>
        </g>
        <g transform="matrix(0.956915,0.190805,-0.195546,0.980694,170.131,96.5253)">
            <rect x="417.418" y="499.557" width="18.474" height="76.097" style="fill:rgb(66,67,62);"/>
        </g>
        <g transform="matrix(0.934025,0.282295,-0.28931,0.957235,266.229,79.3224)">
            <rect x="417.418" y="499.557" width="18.474" height="76.097" style="fill:rgb(66,67,62);"/>
        </g>
    </g>

</g>
<g transform="translate(-563.1999857011682,416.34699354684176) rotate(270.0)">

    <g id="curve-right" transform="matrix(1,0,0,1,-399.385,-660.369)">
        <g transform="matrix(0.485955,0,0,1,196.54,160.963)">
            <rect x="417.418" y="499.557" width="18.474" height="76.097" style="fill:rgb(66,67,62);"/>
        </g>
        <g transform="matrix(0.449066,0.185719,-0.382174,0.92409,553.572,149.05)">
            <rect x="417.418" y="499.557" width="18.474" height="76.097" style="fill:rgb(66,67,62);"/>
        </g>
        <g transform="matrix(0.000292857,0.485955,-1.96916,0.0011867,1533.35,466.611)">
            <path d="M497.433,498.806C497.433,498.806 464.83,516.918 449.468,536.304C434.067,555.739 435.892,575.654 435.892,575.654L417.418,575.654C417.418,575.654 416.1,555.263 431.498,535.482C447.041,515.512 480.476,497.085 480.476,497.085L497.433,498.806Z" style="fill:rgb(66,67,62);"/>
        </g>
        <g transform="matrix(0.000292857,0.485955,-1.73431,0.00104517,1397.63,512.386)">
            <path d="M497.424,498.991C497.424,498.991 465.339,516.396 449.977,535.782C434.577,555.217 437.928,575.654 437.928,575.654L419.406,575.654C419.406,575.654 416.545,554.561 431.942,534.779C447.486,514.81 480.49,497.042 480.49,497.042L497.424,498.991Z" style="fill:rgb(66,67,62);"/>
        </g>
        <g transform="matrix(0.971065,0.0955305,-0.0979044,0.995196,75.0375,124.561)">
            <rect x="417.418" y="499.557" width="18.474" height="76.097" style="fill:rgb(66,67,62);"/>
        </g>
        <g transform="matrix(0.956915,0.190805,-0.195546,0.980694,170.131,96.5253)">
            <rect x="417.418" y="499.557" width="18.474" height="76.097" style="fill:rgb(66,67,62);"/>
        </g>
        <g transform="matrix(0.934025,0.282295,-0.28931,0.957235,266.229,79.3224)">
            <rect x="417.418" y="499.557" width="18.474" height="76.097" style="fill:rgb(66,67,62);"/>
        </g>
    </g>

</g>
<g transform="translate(-531.9999857011683,257.34699354684176) rotate(292.5)">

    <g id="curve-right" transform="matrix(1,0,0,1,-399.385,-660.369)">
        <g transform="matrix(0.485955,0,0,1,196.54,160.963)">
            <rect x="417.418" y="499.557" width="18.474" height="76.097" style="fill:rgb(66,67,62);"/>
        </g>
        <g transform="matrix(0.449066,0.185719,-0.382174,0.92409,553.572,149.05)">
            <rect x="417.418" y="499.557" width="18.474" height="76.097" style="fill:rgb(66,67,62);"/>
        </g>
        <g transform="matrix(0.000292857,0.485955,-1.96916,0.0011867,1533.35,466.611)">
            <path d="M497.433,498.806C497.433,498.806 464.83,516.918 449.468,536.304C434.067,555.739 435.892,575.654 435.892,575.654L417.418,575.654C417.418,575.654 416.1,555.263 431.498,535.482C447.041,515.512 480.476,497.085 480.476,497.085L497.433,498.806Z" style="fill:rgb(66,67,62);"/>
        </g>
        <g transform="matrix(0.000292857,0.485955,-1.73431,0.00104517,1397.63,512.386)">
            <path d="M497.424,498.991C497.424,498.991 465.339,516.396 449.977,535.782C434.577,555.217 437.928,575.654 437.928,575.654L419.406,575.654C419.406,575.654 416.545,554.561 431.942,534.779C447.486,514.81 480.49,497.042 480.49,497.042L497.424,498.991Z" style="fill:rgb(66,67,62);"/>
        </g>
        <g transform="matrix(0.971065,0.0955305,-0.0979044,0.995196,75.0375,124.561)">
            <rect x="417.418" y="499.557" width="18.474" height="76.097" style="fill:rgb(66,67,62);"/>
        </g>
        <g transform="matrix(0.956915,0.190805,-0.195546,0.980694,170.131,96.5253)">
            <rect x="417.418" y="499.557" width="18.474" height="76.097" style="fill:rgb(66,67,62);"/>
        </g>
        <g transform="matrix(0.934025,0.282295,-0.28931,0.957235,266.229,79.3224)">
            <rect x="417.418" y="499.557" width="18.474" height="76.097" style="fill:rgb(66,67,62);"/>
        </g>
    </g>

</g>
<g transform="translate(-442.3282785407668,122.389870967338) rotate(315.0)">

    <g id="curve-right" transform="matrix(1,0,0,1,-399.385,-660.369)">
        <g transform="matrix(0.485955,0,0,1,196.54,160.963)">
            <rect x="417.418" y="499.557" width="18.474" height="76.097" style="fill:rgb(66,67,62);"/>
        </g>
        <g transform="matrix(0.449066,0.185719,-0.382174,0.92409,553.572,149.05)">
            <rect x="417.418" y="499.557" width="18.474" height="76.097" style="fill:rgb(66,67,62);"/>
        </g>
        <g transform="matrix(0.000292857,0.485955,-1.96916,0.0011867,1533.35,466.611)">
            <path d="M497.433,498.806C497.433,498.806 464.83,516.918 449.468,536.304C434.067,555.739 435.892,575.654 435.892,575.654L417.418,575.654C417.418,575.654 416.1,555.263 431.498,535.482C447.041,515.512 480.476,497.085 480.476,497.085L497.433,498.806Z" style="fill:rgb(66,67,62);"/>
        </g>
        <g transform="matrix(0.000292857,0.485955,-1.73431,0.00104517,1397.63,512.386)">
            <path d="M497.424,498.991C497.424,498.991 465.339,516.396 449.977,535.782C434.577,555.217 437.928,575.654 437.928,575.654L419.406,575.654C419.406,575.654 416.545,554.561 431.942,534.779C447.486,514.81 480.49,497.042 480.49,497.042L497.424,498.991Z" style="fill:rgb(66,67,62);"/>
        </g>
        <g transform="matrix(0.971065,0.0955305,-0.0979044,0.995196,75.0375,124.561)">
            <rect x="417.418" y="499.557" width="18.474" height="76.097" style="fill:rgb(66,67,62);"/>
        </g>
        <g transform="matrix(0.956915,0.190805,-0.195546,0.980694,170.131,96.5253)">
            <rect x="417.418" y="499.557" width="18.474" height="76.097" style="fill:rgb(66,67,62);"/>
        </g>
        <g transform="matrix(0.934025,0.282295,-0.28931,0.957235,266.229,79.3224)">
            <rect x="417.418" y="499.557" width="18.474" height="76.097" style="fill:rgb(66,67,62);"/>
        </g>
    </g>

</g>
<g transform="translate(-307.8365687590855,32.0216243316972) rotate(337.5)">

    <g id="curve-right" transform="matrix(1,0,0,1,-399.385,-660.369)">
        <g transform="matrix(0.485955,0,0,1,196.54,160.963)">
            <rect x="417.418" y="499.557" width="18.474" height="76.097" style="fill:rgb(66,67,62);"/>
        </g>
        <g transform="matrix(0.449066,0.185719,-0.382174,0.92409,553.572,149.05)">
            <rect x="417.418" y="499.557" width="18.474" height="76.097" style="fill:rgb(66,67,62);"/>
        </g>
        <g transform="matrix(0.000292857,0.485955,-1.96916,0.0011867,1533.35,466.611)">
            <path d="M497.433,498.806C497.433,498.806 464.83,516.918 449.468,536.304C434.067,555.739 435.892,575.654 435.892,575.654L417.418,575.654C417.418,575.654 416.1,555.263 431.498,535.482C447.041,515.512 480.476,497.085 480.476,497.085L497.433,498.806Z" style="fill:rgb(66,67,62);"/>
        </g>
        <g transform="matrix(0.000292857,0.485955,-1.73431,0.00104517,1397.63,512.386)">
            <path d="M497.424,498.991C497.424,498.991 465.339,516.396 449.977,535.782C434.577,555.217 437.928,575.654 437.928,575.654L419.406,575.654C419.406,575.654 416.545,554.561 431.942,534.779C447.486,514.81 480.49,497.042 480.49,497.042L497.424,498.991Z" style="fill:rgb(66,67,62);"/>
        </g>
        <g transform="matrix(0.971065,0.0955305,-0.0979044,0.995196,75.0375,124.561)">
            <rect x="417.418" y="499.557" width="18.474" height="76.097" style="fill:rgb(66,67,62);"/>
        </g>
        <g transform="matrix(0.956915,0.190805,-0.195546,0.980694,170.131,96.5253)">
            <rect x="417.418" y="499.557" width="18.474" height="76.097" style="fill:rgb(66,67,62);"/>
        </g>
        <g transform="matrix(0.934025,0.282295,-0.28931,0.957235,266.229,79.3224)">
            <rect x="417.418" y="499.557" width="18.474" height="76.097" style="fill:rgb(66,67,62);"/>
        </g>
    </g>

</g>
<g transform="translate(-149.00000000000009,1.0658141036401503e-13) rotate(360.0)">

    <g transform="matrix(0.975753,0,0,1,-378.913,-499.557)">
        <rect x="417.418" y="499.557" width="18.474" height="76.097" style="fill:rgb(66,67,62);"/>
    </g>
    <g transform="matrix(0.975753,0,0,1,-304.048,-499.557)">
        <rect x="417.418" y="499.557" width="18.474" height="76.097" style="fill:rgb(66,67,62);"/>
    </g>
    <g transform="matrix(0.975753,0,0,1,-341.48,-499.557)">
        <rect x="417.418" y="499.557" width="18.474" height="76.097" style="fill:rgb(66,67,62);"/>
    </g>
    <g transform="matrix(0.485955,0,0,1,-202.846,-499.557)">
        <rect x="417.418" y="499.557" width="18.474" height="76.097" style="fill:rgb(66,67,62);"/>
    </g>
    <g transform="matrix(0.485955,0,0,1,-61.9658,-499.487)">
        <rect x="417.418" y="499.557" width="18.474" height="76.097" style="fill:rgb(66,67,62);"/>
    </g>
    <g transform="matrix(0.000292857,0.485955,-1.96916,0.0011867,1133.45,-193.939)">
        <rect x="417.418" y="499.557" width="18.474" height="76.097" style="fill:rgb(66,67,62);"/>
    </g>
    <g transform="matrix(0.000292857,0.485955,-1.96916,0.0011867,1133.45,-146.861)">
        <rect x="417.418" y="499.557" width="18.474" height="76.097" style="fill:rgb(66,67,62);"/>
    </g>

</g>
</g>
</svg>