<?xml version="1.0" encoding="UTF-8"?>
<svg xmlns="http://www.w3.org/2000/svg" xmlns:xlink="http://www.w3.org/1999/xlink"
     width="4096" height="4096" viewBox="-2048 -2048 4096 4096">
<defs>
</defs>

            <script type="text/javascript">
                <![CDATA[
                    var currentScale = 1.0;
                    var mainGroup = document.getElementById('main-group');
                    
                    function zoomIn() {
                        currentScale = Math.min(currentScale * 1.2, 3.0);
                        updateZoom();
                    }
                    
                    function zoomOut() {
                        currentScale = Math.max(currentScale / 1.2, 0.2);
                        updateZoom();
                    }
                    
                    function updateZoom() {
                        mainGroup.setAttribute('transform', 'scale(' + currentScale + ')');
                    }
                ]]>
            </script>
        

            <style>
                .zoom-btn {
                    fill: #f0f0f0;
                    stroke: #666;
                    stroke-width: 1;
                    cursor: pointer;
                }
                .zoom-btn:hover {
                    fill: #e0e0e0;
                }
                .zoom-text {
                    font-family: Arial;
                    user-select: none;
                    pointer-events: none;
                }
            </style>
        
<g>
<circle cx="-1900" cy="-1900" r="40" fill="#f0f0f0" stroke="#666" stroke-width="2" class="zoom-btn" onclick="zoomIn()" />
<text x="-1915" y="-1885" font-size="48" class="zoom-text">+</text>
</g>
<g>
<circle cx="-1900" cy="-1780" r="40" fill="#f0f0f0" stroke="#666" stroke-width="2" class="zoom-btn" onclick="zoomOut()" />
<text x="-1915" y="-1765" font-size="48" class="zoom-text">-</text>
</g>
<g id="main-group">
<g transform="translate(0,0) rotate(0)">

    <g transform="matrix(1.08212,0,0,1.05127,-421.703,-525.168)">
        <rect x="417.418" y="499.557" width="18.474" height="76.097" style="fill:rgb(66,67,62);"/>
    </g>
    <g transform="matrix(1.08212,0,0,1.05127,-381.697,-525.168)">
        <rect x="417.418" y="499.557" width="18.474" height="76.097" style="fill:rgb(66,67,62);"/>
    </g>
    <g transform="matrix(1.08212,0,0,1.05127,-341.697,-525.168)">
        <rect x="417.418" y="499.557" width="18.474" height="76.097" style="fill:rgb(66,67,62);"/>
    </g>
    <g transform="matrix(0.541297,0,0,1.05127,-225.947,-525.124)">
        <rect x="417.418" y="499.557" width="18.474" height="76.097" style="fill:rgb(66,67,62);"/>
    </g>
    <g transform="matrix(0.541297,0,0,1.05127,-75.9473,-525.124)">
        <rect x="417.418" y="499.557" width="18.474" height="76.097" style="fill:rgb(66,67,62);"/>
    </g>
    <g transform="matrix(8.66076,0,0,0.131411,-3615.16,-55.647)">
        <rect x="417.418" y="499.557" width="18.474" height="76.097" style="fill:rgb(66,67,62);"/>
    </g>
    <g transform="matrix(8.66076,0,0,0.131411,-3615.16,-5.64701)">
        <rect x="417.418" y="499.557" width="18.474" height="76.097" style="fill:rgb(66,67,62);"/>
    </g>

</g>
<g transform="translate(160.0,-27.5) rotate(0)">

    <g id="new-curve" transform="matrix(1,0,0,1,-283.523,-678.217)">
        <g transform="matrix(1.07704,-0.104737,0.10175,1.04633,-190.763,226.383)">
            <rect x="417.418" y="499.557" width="18.474" height="76.097" style="fill:rgb(66,67,62);"/>
        </g>
        <g transform="matrix(1.06165,-0.209475,0.203503,1.03138,-199.637,272.514)">
            <rect x="417.418" y="499.557" width="18.474" height="76.097" style="fill:rgb(66,67,62);"/>
        </g>
        <g transform="matrix(1.03619,-0.31194,0.303046,1.00664,-203.752,319.632)">
            <rect x="417.418" y="499.557" width="18.474" height="76.097" style="fill:rgb(66,67,62);"/>
        </g>
        <g transform="matrix(0.541297,0,0,1.05127,57.5757,180.52)">
            <rect x="417.418" y="499.557" width="18.474" height="76.097" style="fill:rgb(66,67,62);"/>
        </g>
        <g transform="matrix(0.50012,-0.207083,0.402181,0.971295,4.78201,283.267)">
            <rect x="417.418" y="499.557" width="18.474" height="76.097" style="fill:rgb(66,67,62);"/>
        </g>
        <g transform="matrix(8.66076,0,0,0.131411,-3331.63,649.997)">
            <path d="M434.044,285.024L434.486,355.421C434.486,355.421 428.93,482.252 426.115,518.573C423.27,555.278 417.418,575.654 417.418,575.654L417.418,499.557C417.418,499.557 423.092,479.892 425.863,444.137C428.625,408.492 434.044,285.024 434.044,285.024Z" style="fill:rgb(66,67,62);"/>
        </g>
        <g transform="matrix(8.66076,0,0,0.131411,-3331.63,699.997)">
            <path d="M436.253,256.095L436.694,326.403C436.694,326.403 430.416,469.06 427.204,510.602C425.493,532.726 417.418,575.654 417.418,575.654L417.418,499.557C417.418,499.557 423.855,476.133 426.979,435.739C430.119,395.162 436.253,256.095 436.253,256.095Z" style="fill:rgb(66,67,62);"/>
        </g>
    </g>

</g>
<g transform="translate(300.0,-27.5) rotate(-22.5)">

    <g transform="matrix(1.08212,0,0,1.05127,-421.703,-525.168)">
        <rect x="417.418" y="499.557" width="18.474" height="76.097" style="fill:rgb(66,67,62);"/>
    </g>
    <g transform="matrix(1.08212,0,0,1.05127,-381.697,-525.168)">
        <rect x="417.418" y="499.557" width="18.474" height="76.097" style="fill:rgb(66,67,62);"/>
    </g>
    <g transform="matrix(1.08212,0,0,1.05127,-341.697,-525.168)">
        <rect x="417.418" y="499.557" width="18.474" height="76.097" style="fill:rgb(66,67,62);"/>
    </g>
    <g transform="matrix(0.541297,0,0,1.05127,-225.947,-525.124)">
        <rect x="417.418" y="499.557" width="18.474" height="76.097" style="fill:rgb(66,67,62);"/>
    </g>
    <g transform="matrix(0.541297,0,0,1.05127,-75.9473,-525.124)">
        <rect x="417.418" y="499.557" width="18.474" height="76.097" style="fill:rgb(66,67,62);"/>
    </g>
    <g transform="matrix(8.66076,0,0,0.131411,-3615.16,-55.647)">
        <rect x="417.418" y="499.557" width="18.474" height="76.097" style="fill:rgb(66,67,62);"/>
    </g>
    <g transform="matrix(8.66076,0,0,0.131411,-3615.16,-5.64701)">
        <rect x="417.418" y="499.557" width="18.474" height="76.097" style="fill:rgb(66,67,62);"/>
    </g>

</g>
<g transform="translate(447.8207252018059,-88.72934917841437) rotate(-22.5)">

    <g id="curve-right" transform="matrix(1,0,0,-1,-283.523,785.686)">
        <g transform="matrix(-0.500094,0.207146,-0.402303,-0.971244,864.018,1150.86)">
            <rect x="417.418" y="499.557" width="18.474" height="76.097" style="fill:rgb(66,67,62);"/>
        </g>
        <g transform="matrix(-1.03555,0.314033,-0.305079,-1.00603,1007.17,1134.54)">
            <rect x="417.418" y="499.557" width="18.474" height="76.097" style="fill:rgb(66,67,62);"/>
        </g>
        <g transform="matrix(-1.06133,0.211112,-0.205092,-1.03107,925.865,1201.83)">
            <rect x="417.418" y="499.557" width="18.474" height="76.097" style="fill:rgb(66,67,62);"/>
        </g>
        <g transform="matrix(-1.07696,0.105597,-0.102586,-1.04625,838.135,1261.61)">
            <rect x="417.418" y="499.557" width="18.474" height="76.097" style="fill:rgb(66,67,62);"/>
        </g>
        <g transform="matrix(-0.541297,-6.62898e-17,1.28743e-16,-1.05127,519.47,1310.85)">
            <rect x="417.418" y="499.557" width="18.474" height="76.097" style="fill:rgb(66,67,62);"/>
        </g>
        <g transform="matrix(8.66076,0,0,0.131411,-3331.63,649.997)">
            <path d="M434.044,285.024L434.486,355.421C434.486,355.421 428.93,482.252 426.115,518.573C423.27,555.278 417.418,575.654 417.418,575.654L417.418,499.557C417.418,499.557 423.092,479.892 425.863,444.137C428.625,408.492 434.044,285.024 434.044,285.024Z" style="fill:rgb(66,67,62);"/>
        </g>
        <g transform="matrix(8.66076,0,0,0.131411,-3331.63,699.997)">
            <path d="M436.253,256.095L436.694,326.403C436.694,326.403 430.416,469.06 427.204,510.602C425.493,532.726 417.418,575.654 417.418,575.654L417.418,499.557C417.418,499.557 423.855,476.133 426.979,435.739C430.119,395.162 436.253,256.095 436.253,256.095Z" style="fill:rgb(66,67,62);"/>
        </g>
    </g>

</g>
<g transform="translate(618.1620804792108,-123.02691005753407) rotate(0.0)">

    <g id="curve-right" transform="matrix(1,0,0,-1,-283.523,785.686)">
        <g transform="matrix(-0.500094,0.207146,-0.402303,-0.971244,864.018,1150.86)">
            <rect x="417.418" y="499.557" width="18.474" height="76.097" style="fill:rgb(66,67,62);"/>
        </g>
        <g transform="matrix(-1.03555,0.314033,-0.305079,-1.00603,1007.17,1134.54)">
            <rect x="417.418" y="499.557" width="18.474" height="76.097" style="fill:rgb(66,67,62);"/>
        </g>
        <g transform="matrix(-1.06133,0.211112,-0.205092,-1.03107,925.865,1201.83)">
            <rect x="417.418" y="499.557" width="18.474" height="76.097" style="fill:rgb(66,67,62);"/>
        </g>
        <g transform="matrix(-1.07696,0.105597,-0.102586,-1.04625,838.135,1261.61)">
            <rect x="417.418" y="499.557" width="18.474" height="76.097" style="fill:rgb(66,67,62);"/>
        </g>
        <g transform="matrix(-0.541297,-6.62898e-17,1.28743e-16,-1.05127,519.47,1310.85)">
            <rect x="417.418" y="499.557" width="18.474" height="76.097" style="fill:rgb(66,67,62);"/>
        </g>
        <g transform="matrix(8.66076,0,0,0.131411,-3331.63,649.997)">
            <path d="M434.044,285.024L434.486,355.421C434.486,355.421 428.93,482.252 426.115,518.573C423.27,555.278 417.418,575.654 417.418,575.654L417.418,499.557C417.418,499.557 423.092,479.892 425.863,444.137C428.625,408.492 434.044,285.024 434.044,285.024Z" style="fill:rgb(66,67,62);"/>
        </g>
        <g transform="matrix(8.66076,0,0,0.131411,-3331.63,699.997)">
            <path d="M436.253,256.095L436.694,326.403C436.694,326.403 430.416,469.06 427.204,510.602C425.493,532.726 417.418,575.654 417.418,575.654L417.418,499.557C417.418,499.557 423.855,476.133 426.979,435.739C430.119,395.162 436.253,256.095 436.253,256.095Z" style="fill:rgb(66,67,62);"/>
        </g>
    </g>

</g>
<g transform="translate(788.6620804792108,-89.52691005753407) rotate(22.5)">

    <g id="curve-right" transform="matrix(1,0,0,-1,-283.523,785.686)">
        <g transform="matrix(-0.500094,0.207146,-0.402303,-0.971244,864.018,1150.86)">
            <rect x="417.418" y="499.557" width="18.474" height="76.097" style="fill:rgb(66,67,62);"/>
        </g>
        <g transform="matrix(-1.03555,0.314033,-0.305079,-1.00603,1007.17,1134.54)">
            <rect x="417.418" y="499.557" width="18.474" height="76.097" style="fill:rgb(66,67,62);"/>
        </g>
        <g transform="matrix(-1.06133,0.211112,-0.205092,-1.03107,925.865,1201.83)">
            <rect x="417.418" y="499.557" width="18.474" height="76.097" style="fill:rgb(66,67,62);"/>
        </g>
        <g transform="matrix(-1.07696,0.105597,-0.102586,-1.04625,838.135,1261.61)">
            <rect x="417.418" y="499.557" width="18.474" height="76.097" style="fill:rgb(66,67,62);"/>
        </g>
        <g transform="matrix(-0.541297,-6.62898e-17,1.28743e-16,-1.05127,519.47,1310.85)">
            <rect x="417.418" y="499.557" width="18.474" height="76.097" style="fill:rgb(66,67,62);"/>
        </g>
        <g transform="matrix(8.66076,0,0,0.131411,-3331.63,649.997)">
            <path d="M434.044,285.024L434.486,355.421C434.486,355.421 428.93,482.252 426.115,518.573C423.27,555.278 417.418,575.654 417.418,575.654L417.418,499.557C417.418,499.557 423.092,479.892 425.863,444.137C428.625,408.492 434.044,285.024 434.044,285.024Z" style="fill:rgb(66,67,62);"/>
        </g>
        <g transform="matrix(8.66076,0,0,0.131411,-3331.63,699.997)">
            <path d="M436.253,256.095L436.694,326.403C436.694,326.403 430.416,469.06 427.204,510.602C425.493,532.726 417.418,575.654 417.418,575.654L417.418,499.557C417.418,499.557 423.855,476.133 426.979,435.739C430.119,395.162 436.253,256.095 436.253,256.095Z" style="fill:rgb(66,67,62);"/>
        </g>
    </g>

</g>
<g transform="translate(933.3636457881546,6.6705794998418355) rotate(45.0)">

    <g id="curve-right" transform="matrix(1,0,0,-1,-283.523,785.686)">
        <g transform="matrix(-0.500094,0.207146,-0.402303,-0.971244,864.018,1150.86)">
            <rect x="417.418" y="499.557" width="18.474" height="76.097" style="fill:rgb(66,67,62);"/>
        </g>
        <g transform="matrix(-1.03555,0.314033,-0.305079,-1.00603,1007.17,1134.54)">
            <rect x="417.418" y="499.557" width="18.474" height="76.097" style="fill:rgb(66,67,62);"/>
        </g>
        <g transform="matrix(-1.06133,0.211112,-0.205092,-1.03107,925.865,1201.83)">
            <rect x="417.418" y="499.557" width="18.474" height="76.097" style="fill:rgb(66,67,62);"/>
        </g>
        <g transform="matrix(-1.07696,0.105597,-0.102586,-1.04625,838.135,1261.61)">
            <rect x="417.418" y="499.557" width="18.474" height="76.097" style="fill:rgb(66,67,62);"/>
        </g>
        <g transform="matrix(-0.541297,-6.62898e-17,1.28743e-16,-1.05127,519.47,1310.85)">
            <rect x="417.418" y="499.557" width="18.474" height="76.097" style="fill:rgb(66,67,62);"/>
        </g>
        <g transform="matrix(8.66076,0,0,0.131411,-3331.63,649.997)">
            <path d="M434.044,285.024L434.486,355.421C434.486,355.421 428.93,482.252 426.115,518.573C423.27,555.278 417.418,575.654 417.418,575.654L417.418,499.557C417.418,499.557 423.092,479.892 425.863,444.137C428.625,408.492 434.044,285.024 434.044,285.024Z" style="fill:rgb(66,67,62);"/>
        </g>
        <g transform="matrix(8.66076,0,0,0.131411,-3331.63,699.997)">
            <path d="M436.253,256.095L436.694,326.403C436.694,326.403 430.416,469.06 427.204,510.602C425.493,532.726 417.418,575.654 417.418,575.654L417.418,499.557C417.418,499.557 423.855,476.133 426.979,435.739C430.119,395.162 436.253,256.095 436.253,256.095Z" style="fill:rgb(66,67,62);"/>
        </g>
    </g>

</g>
<g transform="translate(1030.2372748107116,150.92036286189753) rotate(67.5)">

    <g id="curve-right" transform="matrix(1,0,0,-1,-283.523,785.686)">
        <g transform="matrix(-0.500094,0.207146,-0.402303,-0.971244,864.018,1150.86)">
            <rect x="417.418" y="499.557" width="18.474" height="76.097" style="fill:rgb(66,67,62);"/>
        </g>
        <g transform="matrix(-1.03555,0.314033,-0.305079,-1.00603,1007.17,1134.54)">
            <rect x="417.418" y="499.557" width="18.474" height="76.097" style="fill:rgb(66,67,62);"/>
        </g>
        <g transform="matrix(-1.06133,0.211112,-0.205092,-1.03107,925.865,1201.83)">
            <rect x="417.418" y="499.557" width="18.474" height="76.097" style="fill:rgb(66,67,62);"/>
        </g>
        <g transform="matrix(-1.07696,0.105597,-0.102586,-1.04625,838.135,1261.61)">
            <rect x="417.418" y="499.557" width="18.474" height="76.097" style="fill:rgb(66,67,62);"/>
        </g>
        <g transform="matrix(-0.541297,-6.62898e-17,1.28743e-16,-1.05127,519.47,1310.85)">
            <rect x="417.418" y="499.557" width="18.474" height="76.097" style="fill:rgb(66,67,62);"/>
        </g>
        <g transform="matrix(8.66076,0,0,0.131411,-3331.63,649.997)">
            <path d="M434.044,285.024L434.486,355.421C434.486,355.421 428.93,482.252 426.115,518.573C423.27,555.278 417.418,575.654 417.418,575.654L417.418,499.557C417.418,499.557 423.092,479.892 425.863,444.137C428.625,408.492 434.044,285.024 434.044,285.024Z" style="fill:rgb(66,67,62);"/>
        </g>
        <g transform="matrix(8.66076,0,0,0.131411,-3331.63,699.997)">
            <path d="M436.253,256.095L436.694,326.403C436.694,326.403 430.416,469.06 427.204,510.602C425.493,532.726 417.418,575.654 417.418,575.654L417.418,499.557C417.418,499.557 423.855,476.133 426.979,435.739C430.119,395.162 436.253,256.095 436.253,256.095Z" style="fill:rgb(66,67,62);"/>
        </g>
    </g>

</g>
<g transform="translate(1064.5348356898312,321.2617181393024) rotate(90.0)">

    <g id="curve-right" transform="matrix(1,0,0,-1,-283.523,785.686)">
        <g transform="matrix(-0.500094,0.207146,-0.402303,-0.971244,864.018,1150.86)">
            <rect x="417.418" y="499.557" width="18.474" height="76.097" style="fill:rgb(66,67,62);"/>
        </g>
        <g transform="matrix(-1.03555,0.314033,-0.305079,-1.00603,1007.17,1134.54)">
            <rect x="417.418" y="499.557" width="18.474" height="76.097" style="fill:rgb(66,67,62);"/>
        </g>
        <g transform="matrix(-1.06133,0.211112,-0.205092,-1.03107,925.865,1201.83)">
            <rect x="417.418" y="499.557" width="18.474" height="76.097" style="fill:rgb(66,67,62);"/>
        </g>
        <g transform="matrix(-1.07696,0.105597,-0.102586,-1.04625,838.135,1261.61)">
            <rect x="417.418" y="499.557" width="18.474" height="76.097" style="fill:rgb(66,67,62);"/>
        </g>
        <g transform="matrix(-0.541297,-6.62898e-17,1.28743e-16,-1.05127,519.47,1310.85)">
            <rect x="417.418" y="499.557" width="18.474" height="76.097" style="fill:rgb(66,67,62);"/>
        </g>
        <g transform="matrix(8.66076,0,0,0.131411,-3331.63,649.997)">
            <path d="M434.044,285.024L434.486,355.421C434.486,355.421 428.93,482.252 426.115,518.573C423.27,555.278 417.418,575.654 417.418,575.654L417.418,499.557C417.418,499.557 423.092,479.892 425.863,444.137C428.625,408.492 434.044,285.024 434.044,285.024Z" style="fill:rgb(66,67,62);"/>
        </g>
        <g transform="matrix(8.66076,0,0,0.131411,-3331.63,699.997)">
            <path d="M436.253,256.095L436.694,326.403C436.694,326.403 430.416,469.06 427.204,510.602C425.493,532.726 417.418,575.654 417.418,575.654L417.418,499.557C417.418,499.557 423.855,476.133 426.979,435.739C430.119,395.162 436.253,256.095 436.253,256.095Z" style="fill:rgb(66,67,62);"/>
        </g>
    </g>

</g>
<g transform="translate(1031.0348356898312,491.7617181393024) rotate(112.5)">

    <g id="curve-right" transform="matrix(1,0,0,-1,-283.523,785.686)">
        <g transform="matrix(-0.500094,0.207146,-0.402303,-0.971244,864.018,1150.86)">
            <rect x="417.418" y="499.557" width="18.474" height="76.097" style="fill:rgb(66,67,62);"/>
        </g>
        <g transform="matrix(-1.03555,0.314033,-0.305079,-1.00603,1007.17,1134.54)">
            <rect x="417.418" y="499.557" width="18.474" height="76.097" style="fill:rgb(66,67,62);"/>
        </g>
        <g transform="matrix(-1.06133,0.211112,-0.205092,-1.03107,925.865,1201.83)">
            <rect x="417.418" y="499.557" width="18.474" height="76.097" style="fill:rgb(66,67,62);"/>
        </g>
        <g transform="matrix(-1.07696,0.105597,-0.102586,-1.04625,838.135,1261.61)">
            <rect x="417.418" y="499.557" width="18.474" height="76.097" style="fill:rgb(66,67,62);"/>
        </g>
        <g transform="matrix(-0.541297,-6.62898e-17,1.28743e-16,-1.05127,519.47,1310.85)">
            <rect x="417.418" y="499.557" width="18.474" height="76.097" style="fill:rgb(66,67,62);"/>
        </g>
        <g transform="matrix(8.66076,0,0,0.131411,-3331.63,649.997)">
            <path d="M434.044,285.024L434.486,355.421C434.486,355.421 428.93,482.252 426.115,518.573C423.27,555.278 417.418,575.654 417.418,575.654L417.418,499.557C417.418,499.557 423.092,479.892 425.863,444.137C428.625,408.492 434.044,285.024 434.044,285.024Z" style="fill:rgb(66,67,62);"/>
        </g>
        <g transform="matrix(8.66076,0,0,0.131411,-3331.63,699.997)">
            <path d="M436.253,256.095L436.694,326.403C436.694,326.403 430.416,469.06 427.204,510.602C425.493,532.726 417.418,575.654 417.418,575.654L417.418,499.557C417.418,499.557 423.855,476.133 426.979,435.739C430.119,395.162 436.253,256.095 436.253,256.095Z" style="fill:rgb(66,67,62);"/>
        </g>
    </g>

</g>
<g transform="translate(934.8373461324553,636.4632834482463) rotate(135.0)">

    <g id="curve-right" transform="matrix(1,0,0,-1,-283.523,785.686)">
        <g transform="matrix(-0.500094,0.207146,-0.402303,-0.971244,864.018,1150.86)">
            <rect x="417.418" y="499.557" width="18.474" height="76.097" style="fill:rgb(66,67,62);"/>
        </g>
        <g transform="matrix(-1.03555,0.314033,-0.305079,-1.00603,1007.17,1134.54)">
            <rect x="417.418" y="499.557" width="18.474" height="76.097" style="fill:rgb(66,67,62);"/>
        </g>
        <g transform="matrix(-1.06133,0.211112,-0.205092,-1.03107,925.865,1201.83)">
            <rect x="417.418" y="499.557" width="18.474" height="76.097" style="fill:rgb(66,67,62);"/>
        </g>
        <g transform="matrix(-1.07696,0.105597,-0.102586,-1.04625,838.135,1261.61)">
            <rect x="417.418" y="499.557" width="18.474" height="76.097" style="fill:rgb(66,67,62);"/>
        </g>
        <g transform="matrix(-0.541297,-6.62898e-17,1.28743e-16,-1.05127,519.47,1310.85)">
            <rect x="417.418" y="499.557" width="18.474" height="76.097" style="fill:rgb(66,67,62);"/>
        </g>
        <g transform="matrix(8.66076,0,0,0.131411,-3331.63,649.997)">
            <path d="M434.044,285.024L434.486,355.421C434.486,355.421 428.93,482.252 426.115,518.573C423.27,555.278 417.418,575.654 417.418,575.654L417.418,499.557C417.418,499.557 423.092,479.892 425.863,444.137C428.625,408.492 434.044,285.024 434.044,285.024Z" style="fill:rgb(66,67,62);"/>
        </g>
        <g transform="matrix(8.66076,0,0,0.131411,-3331.63,699.997)">
            <path d="M436.253,256.095L436.694,326.403C436.694,326.403 430.416,469.06 427.204,510.602C425.493,532.726 417.418,575.654 417.418,575.654L417.418,499.557C417.418,499.557 423.855,476.133 426.979,435.739C430.119,395.162 436.253,256.095 436.253,256.095Z" style="fill:rgb(66,67,62);"/>
        </g>
    </g>

</g>
<g transform="translate(790.5875627703996,733.3369124708033) rotate(157.5)">

    <g id="curve-right" transform="matrix(1,0,0,-1,-283.523,785.686)">
        <g transform="matrix(-0.500094,0.207146,-0.402303,-0.971244,864.018,1150.86)">
            <rect x="417.418" y="499.557" width="18.474" height="76.097" style="fill:rgb(66,67,62);"/>
        </g>
        <g transform="matrix(-1.03555,0.314033,-0.305079,-1.00603,1007.17,1134.54)">
            <rect x="417.418" y="499.557" width="18.474" height="76.097" style="fill:rgb(66,67,62);"/>
        </g>
        <g transform="matrix(-1.06133,0.211112,-0.205092,-1.03107,925.865,1201.83)">
            <rect x="417.418" y="499.557" width="18.474" height="76.097" style="fill:rgb(66,67,62);"/>
        </g>
        <g transform="matrix(-1.07696,0.105597,-0.102586,-1.04625,838.135,1261.61)">
            <rect x="417.418" y="499.557" width="18.474" height="76.097" style="fill:rgb(66,67,62);"/>
        </g>
        <g transform="matrix(-0.541297,-6.62898e-17,1.28743e-16,-1.05127,519.47,1310.85)">
            <rect x="417.418" y="499.557" width="18.474" height="76.097" style="fill:rgb(66,67,62);"/>
        </g>
        <g transform="matrix(8.66076,0,0,0.131411,-3331.63,649.997)">
            <path d="M434.044,285.024L434.486,355.421C434.486,355.421 428.93,482.252 426.115,518.573C423.27,555.278 417.418,575.654 417.418,575.654L417.418,499.557C417.418,499.557 423.092,479.892 425.863,444.137C428.625,408.492 434.044,285.024 434.044,285.024Z" style="fill:rgb(66,67,62);"/>
        </g>
        <g transform="matrix(8.66076,0,0,0.131411,-3331.63,699.997)">
            <path d="M436.253,256.095L436.694,326.403C436.694,326.403 430.416,469.06 427.204,510.602C425.493,532.726 417.418,575.654 417.418,575.654L417.418,499.557C417.418,499.557 423.855,476.133 426.979,435.739C430.119,395.162 436.253,256.095 436.253,256.095Z" style="fill:rgb(66,67,62);"/>
        </g>
    </g>

</g>
<g transform="translate(620.2462074929947,767.634473349923) rotate(180.0)">

    <g id="curve-right" transform="matrix(1,0,0,-1,-283.523,785.686)">
        <g transform="matrix(-0.500094,0.207146,-0.402303,-0.971244,864.018,1150.86)">
            <rect x="417.418" y="499.557" width="18.474" height="76.097" style="fill:rgb(66,67,62);"/>
        </g>
        <g transform="matrix(-1.03555,0.314033,-0.305079,-1.00603,1007.17,1134.54)">
            <rect x="417.418" y="499.557" width="18.474" height="76.097" style="fill:rgb(66,67,62);"/>
        </g>
        <g transform="matrix(-1.06133,0.211112,-0.205092,-1.03107,925.865,1201.83)">
            <rect x="417.418" y="499.557" width="18.474" height="76.097" style="fill:rgb(66,67,62);"/>
        </g>
        <g transform="matrix(-1.07696,0.105597,-0.102586,-1.04625,838.135,1261.61)">
            <rect x="417.418" y="499.557" width="18.474" height="76.097" style="fill:rgb(66,67,62);"/>
        </g>
        <g transform="matrix(-0.541297,-6.62898e-17,1.28743e-16,-1.05127,519.47,1310.85)">
            <rect x="417.418" y="499.557" width="18.474" height="76.097" style="fill:rgb(66,67,62);"/>
        </g>
        <g transform="matrix(8.66076,0,0,0.131411,-3331.63,649.997)">
            <path d="M434.044,285.024L434.486,355.421C434.486,355.421 428.93,482.252 426.115,518.573C423.27,555.278 417.418,575.654 417.418,575.654L417.418,499.557C417.418,499.557 423.092,479.892 425.863,444.137C428.625,408.492 434.044,285.024 434.044,285.024Z" style="fill:rgb(66,67,62);"/>
        </g>
        <g transform="matrix(8.66076,0,0,0.131411,-3331.63,699.997)">
            <path d="M436.253,256.095L436.694,326.403C436.694,326.403 430.416,469.06 427.204,510.602C425.493,532.726 417.418,575.654 417.418,575.654L417.418,499.557C417.418,499.557 423.855,476.133 426.979,435.739C430.119,395.162 436.253,256.095 436.253,256.095Z" style="fill:rgb(66,67,62);"/>
        </g>
    </g>

</g>
<g transform="translate(449.7462074929947,734.134473349923) rotate(202.5)">

    <g transform="matrix(1.08212,0,0,1.05127,-421.703,-525.168)">
        <rect x="417.418" y="499.557" width="18.474" height="76.097" style="fill:rgb(66,67,62);"/>
    </g>
    <g transform="matrix(1.08212,0,0,1.05127,-381.697,-525.168)">
        <rect x="417.418" y="499.557" width="18.474" height="76.097" style="fill:rgb(66,67,62);"/>
    </g>
    <g transform="matrix(1.08212,0,0,1.05127,-341.697,-525.168)">
        <rect x="417.418" y="499.557" width="18.474" height="76.097" style="fill:rgb(66,67,62);"/>
    </g>
    <g transform="matrix(0.541297,0,0,1.05127,-225.947,-525.124)">
        <rect x="417.418" y="499.557" width="18.474" height="76.097" style="fill:rgb(66,67,62);"/>
    </g>
    <g transform="matrix(0.541297,0,0,1.05127,-75.9473,-525.124)">
        <rect x="417.418" y="499.557" width="18.474" height="76.097" style="fill:rgb(66,67,62);"/>
    </g>
    <g transform="matrix(8.66076,0,0,0.131411,-3615.16,-55.647)">
        <rect x="417.418" y="499.557" width="18.474" height="76.097" style="fill:rgb(66,67,62);"/>
    </g>
    <g transform="matrix(8.66076,0,0,0.131411,-3615.16,-5.64701)">
        <rect x="417.418" y="499.557" width="18.474" height="76.097" style="fill:rgb(66,67,62);"/>
    </g>

</g>
<g transform="translate(301.9254822911888,700.4051241715086) rotate(202.5)">

    <g id="new-curve" transform="matrix(1,0,0,1,-283.523,-678.217)">
        <g transform="matrix(1.07704,-0.104737,0.10175,1.04633,-190.763,226.383)">
            <rect x="417.418" y="499.557" width="18.474" height="76.097" style="fill:rgb(66,67,62);"/>
        </g>
        <g transform="matrix(1.06165,-0.209475,0.203503,1.03138,-199.637,272.514)">
            <rect x="417.418" y="499.557" width="18.474" height="76.097" style="fill:rgb(66,67,62);"/>
        </g>
        <g transform="matrix(1.03619,-0.31194,0.303046,1.00664,-203.752,319.632)">
            <rect x="417.418" y="499.557" width="18.474" height="76.097" style="fill:rgb(66,67,62);"/>
        </g>
        <g transform="matrix(0.541297,0,0,1.05127,57.5757,180.52)">
            <rect x="417.418" y="499.557" width="18.474" height="76.097" style="fill:rgb(66,67,62);"/>
        </g>
        <g transform="matrix(0.50012,-0.207083,0.402181,0.971295,4.78201,283.267)">
            <rect x="417.418" y="499.557" width="18.474" height="76.097" style="fill:rgb(66,67,62);"/>
        </g>
        <g transform="matrix(8.66076,0,0,0.131411,-3331.63,649.997)">
            <path d="M434.044,285.024L434.486,355.421C434.486,355.421 428.93,482.252 426.115,518.573C423.27,555.278 417.418,575.654 417.418,575.654L417.418,499.557C417.418,499.557 423.092,479.892 425.863,444.137C428.625,408.492 434.044,285.024 434.044,285.024Z" style="fill:rgb(66,67,62);"/>
        </g>
        <g transform="matrix(8.66076,0,0,0.131411,-3331.63,699.997)">
            <path d="M436.253,256.095L436.694,326.403C436.694,326.403 430.416,469.06 427.204,510.602C425.493,532.726 417.418,575.654 417.418,575.654L417.418,499.557C417.418,499.557 423.855,476.133 426.979,435.739C430.119,395.162 436.253,256.095 436.253,256.095Z" style="fill:rgb(66,67,62);"/>
        </g>
    </g>

</g>
<g transform="translate(162.05855334956868,644.7361307844565) rotate(180.0)">

    <g transform="matrix(1.08212,0,0,1.05127,-421.703,-525.168)">
        <rect x="417.418" y="499.557" width="18.474" height="76.097" style="fill:rgb(66,67,62);"/>
    </g>
    <g transform="matrix(1.08212,0,0,1.05127,-381.697,-525.168)">
        <rect x="417.418" y="499.557" width="18.474" height="76.097" style="fill:rgb(66,67,62);"/>
    </g>
    <g transform="matrix(1.08212,0,0,1.05127,-341.697,-525.168)">
        <rect x="417.418" y="499.557" width="18.474" height="76.097" style="fill:rgb(66,67,62);"/>
    </g>
    <g transform="matrix(0.541297,0,0,1.05127,-225.947,-525.124)">
        <rect x="417.418" y="499.557" width="18.474" height="76.097" style="fill:rgb(66,67,62);"/>
    </g>
    <g transform="matrix(0.541297,0,0,1.05127,-75.9473,-525.124)">
        <rect x="417.418" y="499.557" width="18.474" height="76.097" style="fill:rgb(66,67,62);"/>
    </g>
    <g transform="matrix(8.66076,0,0,0.131411,-3615.16,-55.647)">
        <rect x="417.418" y="499.557" width="18.474" height="76.097" style="fill:rgb(66,67,62);"/>
    </g>
    <g transform="matrix(8.66076,0,0,0.131411,-3615.16,-5.64701)">
        <rect x="417.418" y="499.557" width="18.474" height="76.097" style="fill:rgb(66,67,62);"/>
    </g>

</g>
</g>
</svg>