<?xml version="1.0" encoding="UTF-8"?>
<svg xmlns="http://www.w3.org/2000/svg" xmlns:xlink="http://www.w3.org/1999/xlink"
     width="4096" height="4096" viewBox="-2048 -2048 4096 4096">
<defs>
</defs>

            <script type="text/javascript">
                <![CDATA[
                    var currentScale = 1.0;
                    var mainGroup = document.getElementById('main-group');
                    
                    function zoomIn() {
                        currentScale = Math.min(currentScale * 1.2, 3.0);
                        updateZoom();
                    }
                    
                    function zoomOut() {
                        currentScale = Math.max(currentScale / 1.2, 0.2);
                        updateZoom();
                    }
                    
                    function updateZoom() {
                        mainGroup.setAttribute('transform', 'scale(' + currentScale + ')');
                    }
                ]]>
            </script>
        

            <style>
                .zoom-btn {
                    fill: #f0f0f0;
                    stroke: #666;
                    stroke-width: 1;
                    cursor: pointer;
                }
                .zoom-btn:hover {
                    fill: #e0e0e0;
                }
                .zoom-text {
                    font-family: Arial;
                    user-select: none;
                    pointer-events: none;
                }
            </style>
        
<g>
<circle cx="-1900" cy="-1900" r="40" fill="#f0f0f0" stroke="#666" stroke-width="2" class="zoom-btn" onclick="zoomIn()" />
<text x="-1915" y="-1885" font-size="48" class="zoom-text">+</text>
</g>
<g>
<circle cx="-1900" cy="-1780" r="40" fill="#f0f0f0" stroke="#666" stroke-width="2" class="zoom-btn" onclick="zoomOut()" />
<text x="-1915" y="-1765" font-size="48" class="zoom-text">-</text>
</g>
<g id="main-group">
<g transform="translate(0,-25.5) rotate(0)">

    <g id="curve-left" transform="matrix(1,0,0,1,-396.88,-793.532)">
        <g transform="matrix(0.485955,0,0,-1,194.075,1394.68)">
            <rect x="417.418" y="499.557" width="18.474" height="76.097" style="fill:rgb(66,67,62);"/>
        </g>
        <g transform="matrix(0.449066,-0.185719,-0.382174,-0.92409,551.067,1406.44)">
            <rect x="417.418" y="499.557" width="18.474" height="76.097" style="fill:rgb(66,67,62);"/>
        </g>
        <g transform="matrix(0.000292857,-0.485955,-1.96916,-0.0011867,1530.84,1088.88)">
            <path d="M497.433,498.806C497.433,498.806 464.83,516.918 449.468,536.304C434.067,555.739 435.892,575.654 435.892,575.654L417.418,575.654C417.418,575.654 416.1,555.263 431.498,535.482C447.041,515.512 480.476,497.085 480.476,497.085L497.433,498.806Z" style="fill:rgb(66,67,62);"/>
        </g>
        <g transform="matrix(0.000292857,-0.485955,-1.73431,-0.00104517,1395.12,1043.11)">
            <path d="M497.424,498.991C497.424,498.991 465.339,516.396 449.977,535.782C434.577,555.217 437.928,575.654 437.928,575.654L419.406,575.654C419.406,575.654 416.545,554.561 431.942,534.779C447.486,514.81 480.49,497.042 480.49,497.042L497.424,498.991Z" style="fill:rgb(66,67,62);"/>
        </g>
        <g transform="matrix(0.971065,-0.0955305,-0.0979044,-0.995196,72.5321,1430.93)">
            <rect x="417.418" y="499.557" width="18.474" height="76.097" style="fill:rgb(66,67,62);"/>
        </g>
        <g transform="matrix(0.956915,-0.190805,-0.195546,-0.980694,167.625,1458.97)">
            <rect x="417.418" y="499.557" width="18.474" height="76.097" style="fill:rgb(66,67,62);"/>
        </g>
        <g transform="matrix(0.934025,-0.282295,-0.28931,-0.957235,263.723,1476.17)">
            <rect x="417.418" y="499.557" width="18.474" height="76.097" style="fill:rgb(66,67,62);"/>
        </g>
    </g>

</g>
<g transform="translate(120.0,-48.5) rotate(-22.5)">

    <g id="curve-left" transform="matrix(1,0,0,1,-396.88,-793.532)">
        <g transform="matrix(0.485955,0,0,-1,194.075,1394.68)">
            <rect x="417.418" y="499.557" width="18.474" height="76.097" style="fill:rgb(66,67,62);"/>
        </g>
        <g transform="matrix(0.449066,-0.185719,-0.382174,-0.92409,551.067,1406.44)">
            <rect x="417.418" y="499.557" width="18.474" height="76.097" style="fill:rgb(66,67,62);"/>
        </g>
        <g transform="matrix(0.000292857,-0.485955,-1.96916,-0.0011867,1530.84,1088.88)">
            <path d="M497.433,498.806C497.433,498.806 464.83,516.918 449.468,536.304C434.067,555.739 435.892,575.654 435.892,575.654L417.418,575.654C417.418,575.654 416.1,555.263 431.498,535.482C447.041,515.512 480.476,497.085 480.476,497.085L497.433,498.806Z" style="fill:rgb(66,67,62);"/>
        </g>
        <g transform="matrix(0.000292857,-0.485955,-1.73431,-0.00104517,1395.12,1043.11)">
            <path d="M497.424,498.991C497.424,498.991 465.339,516.396 449.977,535.782C434.577,555.217 437.928,575.654 437.928,575.654L419.406,575.654C419.406,575.654 416.545,554.561 431.942,534.779C447.486,514.81 480.49,497.042 480.49,497.042L497.424,498.991Z" style="fill:rgb(66,67,62);"/>
        </g>
        <g transform="matrix(0.971065,-0.0955305,-0.0979044,-0.995196,72.5321,1430.93)">
            <rect x="417.418" y="499.557" width="18.474" height="76.097" style="fill:rgb(66,67,62);"/>
        </g>
        <g transform="matrix(0.956915,-0.190805,-0.195546,-0.980694,167.625,1458.97)">
            <rect x="417.418" y="499.557" width="18.474" height="76.097" style="fill:rgb(66,67,62);"/>
        </g>
        <g transform="matrix(0.934025,-0.282295,-0.28931,-0.957235,263.723,1476.17)">
            <rect x="417.418" y="499.557" width="18.474" height="76.097" style="fill:rgb(66,67,62);"/>
        </g>
    </g>

</g>
<g transform="translate(222.06382495695735,-115.67124113157037) rotate(-45.0)">

    <g id="curve-left" transform="matrix(1,0,0,1,-396.88,-793.532)">
        <g transform="matrix(0.485955,0,0,-1,194.075,1394.68)">
            <rect x="417.418" y="499.557" width="18.474" height="76.097" style="fill:rgb(66,67,62);"/>
        </g>
        <g transform="matrix(0.449066,-0.185719,-0.382174,-0.92409,551.067,1406.44)">
            <rect x="417.418" y="499.557" width="18.474" height="76.097" style="fill:rgb(66,67,62);"/>
        </g>
        <g transform="matrix(0.000292857,-0.485955,-1.96916,-0.0011867,1530.84,1088.88)">
            <path d="M497.433,498.806C497.433,498.806 464.83,516.918 449.468,536.304C434.067,555.739 435.892,575.654 435.892,575.654L417.418,575.654C417.418,575.654 416.1,555.263 431.498,535.482C447.041,515.512 480.476,497.085 480.476,497.085L497.433,498.806Z" style="fill:rgb(66,67,62);"/>
        </g>
        <g transform="matrix(0.000292857,-0.485955,-1.73431,-0.00104517,1395.12,1043.11)">
            <path d="M497.424,498.991C497.424,498.991 465.339,516.396 449.977,535.782C434.577,555.217 437.928,575.654 437.928,575.654L419.406,575.654C419.406,575.654 416.545,554.561 431.942,534.779C447.486,514.81 480.49,497.042 480.49,497.042L497.424,498.991Z" style="fill:rgb(66,67,62);"/>
        </g>
        <g transform="matrix(0.971065,-0.0955305,-0.0979044,-0.995196,72.5321,1430.93)">
            <rect x="417.418" y="499.557" width="18.474" height="76.097" style="fill:rgb(66,67,62);"/>
        </g>
        <g transform="matrix(0.956915,-0.190805,-0.195546,-0.980694,167.625,1458.97)">
            <rect x="417.418" y="499.557" width="18.474" height="76.097" style="fill:rgb(66,67,62);"/>
        </g>
        <g transform="matrix(0.934025,-0.282295,-0.28931,-0.957235,263.723,1476.17)">
            <rect x="417.418" y="499.557" width="18.474" height="76.097" style="fill:rgb(66,67,62);"/>
        </g>
    </g>

</g>
<g transform="translate(290.65318273205247,-216.78751084124667) rotate(-67.5)">

    <g id="curve-left" transform="matrix(1,0,0,1,-396.88,-793.532)">
        <g transform="matrix(0.485955,0,0,-1,194.075,1394.68)">
            <rect x="417.418" y="499.557" width="18.474" height="76.097" style="fill:rgb(66,67,62);"/>
        </g>
        <g transform="matrix(0.449066,-0.185719,-0.382174,-0.92409,551.067,1406.44)">
            <rect x="417.418" y="499.557" width="18.474" height="76.097" style="fill:rgb(66,67,62);"/>
        </g>
        <g transform="matrix(0.000292857,-0.485955,-1.96916,-0.0011867,1530.84,1088.88)">
            <path d="M497.433,498.806C497.433,498.806 464.83,516.918 449.468,536.304C434.067,555.739 435.892,575.654 435.892,575.654L417.418,575.654C417.418,575.654 416.1,555.263 431.498,535.482C447.041,515.512 480.476,497.085 480.476,497.085L497.433,498.806Z" style="fill:rgb(66,67,62);"/>
        </g>
        <g transform="matrix(0.000292857,-0.485955,-1.73431,-0.00104517,1395.12,1043.11)">
            <path d="M497.424,498.991C497.424,498.991 465.339,516.396 449.977,535.782C434.577,555.217 437.928,575.654 437.928,575.654L419.406,575.654C419.406,575.654 416.545,554.561 431.942,534.779C447.486,514.81 480.49,497.042 480.49,497.042L497.424,498.991Z" style="fill:rgb(66,67,62);"/>
        </g>
        <g transform="matrix(0.971065,-0.0955305,-0.0979044,-0.995196,72.5321,1430.93)">
            <rect x="417.418" y="499.557" width="18.474" height="76.097" style="fill:rgb(66,67,62);"/>
        </g>
        <g transform="matrix(0.956915,-0.190805,-0.195546,-0.980694,167.625,1458.97)">
            <rect x="417.418" y="499.557" width="18.474" height="76.097" style="fill:rgb(66,67,62);"/>
        </g>
        <g transform="matrix(0.934025,-0.282295,-0.28931,-0.957235,263.723,1476.17)">
            <rect x="417.418" y="499.557" width="18.474" height="76.097" style="fill:rgb(66,67,62);"/>
        </g>
    </g>

</g>
<g transform="translate(315.32596536810365,-336.4547736869981) rotate(-90.0)">

    <g id="curve-left" transform="matrix(1,0,0,1,-396.88,-793.532)">
        <g transform="matrix(0.485955,0,0,-1,194.075,1394.68)">
            <rect x="417.418" y="499.557" width="18.474" height="76.097" style="fill:rgb(66,67,62);"/>
        </g>
        <g transform="matrix(0.449066,-0.185719,-0.382174,-0.92409,551.067,1406.44)">
            <rect x="417.418" y="499.557" width="18.474" height="76.097" style="fill:rgb(66,67,62);"/>
        </g>
        <g transform="matrix(0.000292857,-0.485955,-1.96916,-0.0011867,1530.84,1088.88)">
            <path d="M497.433,498.806C497.433,498.806 464.83,516.918 449.468,536.304C434.067,555.739 435.892,575.654 435.892,575.654L417.418,575.654C417.418,575.654 416.1,555.263 431.498,535.482C447.041,515.512 480.476,497.085 480.476,497.085L497.433,498.806Z" style="fill:rgb(66,67,62);"/>
        </g>
        <g transform="matrix(0.000292857,-0.485955,-1.73431,-0.00104517,1395.12,1043.11)">
            <path d="M497.424,498.991C497.424,498.991 465.339,516.396 449.977,535.782C434.577,555.217 437.928,575.654 437.928,575.654L419.406,575.654C419.406,575.654 416.545,554.561 431.942,534.779C447.486,514.81 480.49,497.042 480.49,497.042L497.424,498.991Z" style="fill:rgb(66,67,62);"/>
        </g>
        <g transform="matrix(0.971065,-0.0955305,-0.0979044,-0.995196,72.5321,1430.93)">
            <rect x="417.418" y="499.557" width="18.474" height="76.097" style="fill:rgb(66,67,62);"/>
        </g>
        <g transform="matrix(0.956915,-0.190805,-0.195546,-0.980694,167.625,1458.97)">
            <rect x="417.418" y="499.557" width="18.474" height="76.097" style="fill:rgb(66,67,62);"/>
        </g>
        <g transform="matrix(0.934025,-0.282295,-0.28931,-0.957235,263.723,1476.17)">
            <rect x="417.418" y="499.557" width="18.474" height="76.097" style="fill:rgb(66,67,62);"/>
        </g>
    </g>

</g>
<g transform="translate(292.32596536810365,-456.4547736869981) rotate(-112.5)">

    <g id="curve-left" transform="matrix(1,0,0,1,-396.88,-793.532)">
        <g transform="matrix(0.485955,0,0,-1,194.075,1394.68)">
            <rect x="417.418" y="499.557" width="18.474" height="76.097" style="fill:rgb(66,67,62);"/>
        </g>
        <g transform="matrix(0.449066,-0.185719,-0.382174,-0.92409,551.067,1406.44)">
            <rect x="417.418" y="499.557" width="18.474" height="76.097" style="fill:rgb(66,67,62);"/>
        </g>
        <g transform="matrix(0.000292857,-0.485955,-1.96916,-0.0011867,1530.84,1088.88)">
            <path d="M497.433,498.806C497.433,498.806 464.83,516.918 449.468,536.304C434.067,555.739 435.892,575.654 435.892,575.654L417.418,575.654C417.418,575.654 416.1,555.263 431.498,535.482C447.041,515.512 480.476,497.085 480.476,497.085L497.433,498.806Z" style="fill:rgb(66,67,62);"/>
        </g>
        <g transform="matrix(0.000292857,-0.485955,-1.73431,-0.00104517,1395.12,1043.11)">
            <path d="M497.424,498.991C497.424,498.991 465.339,516.396 449.977,535.782C434.577,555.217 437.928,575.654 437.928,575.654L419.406,575.654C419.406,575.654 416.545,554.561 431.942,534.779C447.486,514.81 480.49,497.042 480.49,497.042L497.424,498.991Z" style="fill:rgb(66,67,62);"/>
        </g>
        <g transform="matrix(0.971065,-0.0955305,-0.0979044,-0.995196,72.5321,1430.93)">
            <rect x="417.418" y="499.557" width="18.474" height="76.097" style="fill:rgb(66,67,62);"/>
        </g>
        <g transform="matrix(0.956915,-0.190805,-0.195546,-0.980694,167.625,1458.97)">
            <rect x="417.418" y="499.557" width="18.474" height="76.097" style="fill:rgb(66,67,62);"/>
        </g>
        <g transform="matrix(0.934025,-0.282295,-0.28931,-0.957235,263.723,1476.17)">
            <rect x="417.418" y="499.557" width="18.474" height="76.097" style="fill:rgb(66,67,62);"/>
        </g>
    </g>

</g>
<g transform="translate(225.1547242365333,-558.5185986439554) rotate(-135.0)">

    <g id="curve-left" transform="matrix(1,0,0,1,-396.88,-793.532)">
        <g transform="matrix(0.485955,0,0,-1,194.075,1394.68)">
            <rect x="417.418" y="499.557" width="18.474" height="76.097" style="fill:rgb(66,67,62);"/>
        </g>
        <g transform="matrix(0.449066,-0.185719,-0.382174,-0.92409,551.067,1406.44)">
            <rect x="417.418" y="499.557" width="18.474" height="76.097" style="fill:rgb(66,67,62);"/>
        </g>
        <g transform="matrix(0.000292857,-0.485955,-1.96916,-0.0011867,1530.84,1088.88)">
            <path d="M497.433,498.806C497.433,498.806 464.83,516.918 449.468,536.304C434.067,555.739 435.892,575.654 435.892,575.654L417.418,575.654C417.418,575.654 416.1,555.263 431.498,535.482C447.041,515.512 480.476,497.085 480.476,497.085L497.433,498.806Z" style="fill:rgb(66,67,62);"/>
        </g>
        <g transform="matrix(0.000292857,-0.485955,-1.73431,-0.00104517,1395.12,1043.11)">
            <path d="M497.424,498.991C497.424,498.991 465.339,516.396 449.977,535.782C434.577,555.217 437.928,575.654 437.928,575.654L419.406,575.654C419.406,575.654 416.545,554.561 431.942,534.779C447.486,514.81 480.49,497.042 480.49,497.042L497.424,498.991Z" style="fill:rgb(66,67,62);"/>
        </g>
        <g transform="matrix(0.971065,-0.0955305,-0.0979044,-0.995196,72.5321,1430.93)">
            <rect x="417.418" y="499.557" width="18.474" height="76.097" style="fill:rgb(66,67,62);"/>
        </g>
        <g transform="matrix(0.956915,-0.190805,-0.195546,-0.980694,167.625,1458.97)">
            <rect x="417.418" y="499.557" width="18.474" height="76.097" style="fill:rgb(66,67,62);"/>
        </g>
        <g transform="matrix(0.934025,-0.282295,-0.28931,-0.957235,263.723,1476.17)">
            <rect x="417.418" y="499.557" width="18.474" height="76.097" style="fill:rgb(66,67,62);"/>
        </g>
    </g>

</g>
<g transform="translate(124.03845452685701,-627.1079564190505) rotate(-157.5)">

    <g id="curve-left" transform="matrix(1,0,0,1,-396.88,-793.532)">
        <g transform="matrix(0.485955,0,0,-1,194.075,1394.68)">
            <rect x="417.418" y="499.557" width="18.474" height="76.097" style="fill:rgb(66,67,62);"/>
        </g>
        <g transform="matrix(0.449066,-0.185719,-0.382174,-0.92409,551.067,1406.44)">
            <rect x="417.418" y="499.557" width="18.474" height="76.097" style="fill:rgb(66,67,62);"/>
        </g>
        <g transform="matrix(0.000292857,-0.485955,-1.96916,-0.0011867,1530.84,1088.88)">
            <path d="M497.433,498.806C497.433,498.806 464.83,516.918 449.468,536.304C434.067,555.739 435.892,575.654 435.892,575.654L417.418,575.654C417.418,575.654 416.1,555.263 431.498,535.482C447.041,515.512 480.476,497.085 480.476,497.085L497.433,498.806Z" style="fill:rgb(66,67,62);"/>
        </g>
        <g transform="matrix(0.000292857,-0.485955,-1.73431,-0.00104517,1395.12,1043.11)">
            <path d="M497.424,498.991C497.424,498.991 465.339,516.396 449.977,535.782C434.577,555.217 437.928,575.654 437.928,575.654L419.406,575.654C419.406,575.654 416.545,554.561 431.942,534.779C447.486,514.81 480.49,497.042 480.49,497.042L497.424,498.991Z" style="fill:rgb(66,67,62);"/>
        </g>
        <g transform="matrix(0.971065,-0.0955305,-0.0979044,-0.995196,72.5321,1430.93)">
            <rect x="417.418" y="499.557" width="18.474" height="76.097" style="fill:rgb(66,67,62);"/>
        </g>
        <g transform="matrix(0.956915,-0.190805,-0.195546,-0.980694,167.625,1458.97)">
            <rect x="417.418" y="499.557" width="18.474" height="76.097" style="fill:rgb(66,67,62);"/>
        </g>
        <g transform="matrix(0.934025,-0.282295,-0.28931,-0.957235,263.723,1476.17)">
            <rect x="417.418" y="499.557" width="18.474" height="76.097" style="fill:rgb(66,67,62);"/>
        </g>
    </g>

</g>
<g transform="translate(4.371191681105529,-651.7807390551018) rotate(-180.0)">

    <g id="curve-left" transform="matrix(1,0,0,1,-396.88,-793.532)">
        <g transform="matrix(0.485955,0,0,-1,194.075,1394.68)">
            <rect x="417.418" y="499.557" width="18.474" height="76.097" style="fill:rgb(66,67,62);"/>
        </g>
        <g transform="matrix(0.449066,-0.185719,-0.382174,-0.92409,551.067,1406.44)">
            <rect x="417.418" y="499.557" width="18.474" height="76.097" style="fill:rgb(66,67,62);"/>
        </g>
        <g transform="matrix(0.000292857,-0.485955,-1.96916,-0.0011867,1530.84,1088.88)">
            <path d="M497.433,498.806C497.433,498.806 464.83,516.918 449.468,536.304C434.067,555.739 435.892,575.654 435.892,575.654L417.418,575.654C417.418,575.654 416.1,555.263 431.498,535.482C447.041,515.512 480.476,497.085 480.476,497.085L497.433,498.806Z" style="fill:rgb(66,67,62);"/>
        </g>
        <g transform="matrix(0.000292857,-0.485955,-1.73431,-0.00104517,1395.12,1043.11)">
            <path d="M497.424,498.991C497.424,498.991 465.339,516.396 449.977,535.782C434.577,555.217 437.928,575.654 437.928,575.654L419.406,575.654C419.406,575.654 416.545,554.561 431.942,534.779C447.486,514.81 480.49,497.042 480.49,497.042L497.424,498.991Z" style="fill:rgb(66,67,62);"/>
        </g>
        <g transform="matrix(0.971065,-0.0955305,-0.0979044,-0.995196,72.5321,1430.93)">
            <rect x="417.418" y="499.557" width="18.474" height="76.097" style="fill:rgb(66,67,62);"/>
        </g>
        <g transform="matrix(0.956915,-0.190805,-0.195546,-0.980694,167.625,1458.97)">
            <rect x="417.418" y="499.557" width="18.474" height="76.097" style="fill:rgb(66,67,62);"/>
        </g>
        <g transform="matrix(0.934025,-0.282295,-0.28931,-0.957235,263.723,1476.17)">
            <rect x="417.418" y="499.557" width="18.474" height="76.097" style="fill:rgb(66,67,62);"/>
        </g>
    </g>

</g>
<g transform="translate(-115.62880831889447,-628.7807390551018) rotate(-202.5)">

    <g id="curve-left" transform="matrix(1,0,0,1,-396.88,-793.532)">
        <g transform="matrix(0.485955,0,0,-1,194.075,1394.68)">
            <rect x="417.418" y="499.557" width="18.474" height="76.097" style="fill:rgb(66,67,62);"/>
        </g>
        <g transform="matrix(0.449066,-0.185719,-0.382174,-0.92409,551.067,1406.44)">
            <rect x="417.418" y="499.557" width="18.474" height="76.097" style="fill:rgb(66,67,62);"/>
        </g>
        <g transform="matrix(0.000292857,-0.485955,-1.96916,-0.0011867,1530.84,1088.88)">
            <path d="M497.433,498.806C497.433,498.806 464.83,516.918 449.468,536.304C434.067,555.739 435.892,575.654 435.892,575.654L417.418,575.654C417.418,575.654 416.1,555.263 431.498,535.482C447.041,515.512 480.476,497.085 480.476,497.085L497.433,498.806Z" style="fill:rgb(66,67,62);"/>
        </g>
        <g transform="matrix(0.000292857,-0.485955,-1.73431,-0.00104517,1395.12,1043.11)">
            <path d="M497.424,498.991C497.424,498.991 465.339,516.396 449.977,535.782C434.577,555.217 437.928,575.654 437.928,575.654L419.406,575.654C419.406,575.654 416.545,554.561 431.942,534.779C447.486,514.81 480.49,497.042 480.49,497.042L497.424,498.991Z" style="fill:rgb(66,67,62);"/>
        </g>
        <g transform="matrix(0.971065,-0.0955305,-0.0979044,-0.995196,72.5321,1430.93)">
            <rect x="417.418" y="499.557" width="18.474" height="76.097" style="fill:rgb(66,67,62);"/>
        </g>
        <g transform="matrix(0.956915,-0.190805,-0.195546,-0.980694,167.625,1458.97)">
            <rect x="417.418" y="499.557" width="18.474" height="76.097" style="fill:rgb(66,67,62);"/>
        </g>
        <g transform="matrix(0.934025,-0.282295,-0.28931,-0.957235,263.723,1476.17)">
            <rect x="417.418" y="499.557" width="18.474" height="76.097" style="fill:rgb(66,67,62);"/>
        </g>
    </g>

</g>
<g transform="translate(-217.69263327585185,-561.6094979235314) rotate(-225.0)">

    <g id="curve-left" transform="matrix(1,0,0,1,-396.88,-793.532)">
        <g transform="matrix(0.485955,0,0,-1,194.075,1394.68)">
            <rect x="417.418" y="499.557" width="18.474" height="76.097" style="fill:rgb(66,67,62);"/>
        </g>
        <g transform="matrix(0.449066,-0.185719,-0.382174,-0.92409,551.067,1406.44)">
            <rect x="417.418" y="499.557" width="18.474" height="76.097" style="fill:rgb(66,67,62);"/>
        </g>
        <g transform="matrix(0.000292857,-0.485955,-1.96916,-0.0011867,1530.84,1088.88)">
            <path d="M497.433,498.806C497.433,498.806 464.83,516.918 449.468,536.304C434.067,555.739 435.892,575.654 435.892,575.654L417.418,575.654C417.418,575.654 416.1,555.263 431.498,535.482C447.041,515.512 480.476,497.085 480.476,497.085L497.433,498.806Z" style="fill:rgb(66,67,62);"/>
        </g>
        <g transform="matrix(0.000292857,-0.485955,-1.73431,-0.00104517,1395.12,1043.11)">
            <path d="M497.424,498.991C497.424,498.991 465.339,516.396 449.977,535.782C434.577,555.217 437.928,575.654 437.928,575.654L419.406,575.654C419.406,575.654 416.545,554.561 431.942,534.779C447.486,514.81 480.49,497.042 480.49,497.042L497.424,498.991Z" style="fill:rgb(66,67,62);"/>
        </g>
        <g transform="matrix(0.971065,-0.0955305,-0.0979044,-0.995196,72.5321,1430.93)">
            <rect x="417.418" y="499.557" width="18.474" height="76.097" style="fill:rgb(66,67,62);"/>
        </g>
        <g transform="matrix(0.956915,-0.190805,-0.195546,-0.980694,167.625,1458.97)">
            <rect x="417.418" y="499.557" width="18.474" height="76.097" style="fill:rgb(66,67,62);"/>
        </g>
        <g transform="matrix(0.934025,-0.282295,-0.28931,-0.957235,263.723,1476.17)">
            <rect x="417.418" y="499.557" width="18.474" height="76.097" style="fill:rgb(66,67,62);"/>
        </g>
    </g>

</g>
<g transform="translate(-286.281991050947,-460.4932282138551) rotate(-247.5)">

    <g id="curve-left" transform="matrix(1,0,0,1,-396.88,-793.532)">
        <g transform="matrix(0.485955,0,0,-1,194.075,1394.68)">
            <rect x="417.418" y="499.557" width="18.474" height="76.097" style="fill:rgb(66,67,62);"/>
        </g>
        <g transform="matrix(0.449066,-0.185719,-0.382174,-0.92409,551.067,1406.44)">
            <rect x="417.418" y="499.557" width="18.474" height="76.097" style="fill:rgb(66,67,62);"/>
        </g>
        <g transform="matrix(0.000292857,-0.485955,-1.96916,-0.0011867,1530.84,1088.88)">
            <path d="M497.433,498.806C497.433,498.806 464.83,516.918 449.468,536.304C434.067,555.739 435.892,575.654 435.892,575.654L417.418,575.654C417.418,575.654 416.1,555.263 431.498,535.482C447.041,515.512 480.476,497.085 480.476,497.085L497.433,498.806Z" style="fill:rgb(66,67,62);"/>
        </g>
        <g transform="matrix(0.000292857,-0.485955,-1.73431,-0.00104517,1395.12,1043.11)">
            <path d="M497.424,498.991C497.424,498.991 465.339,516.396 449.977,535.782C434.577,555.217 437.928,575.654 437.928,575.654L419.406,575.654C419.406,575.654 416.545,554.561 431.942,534.779C447.486,514.81 480.49,497.042 480.49,497.042L497.424,498.991Z" style="fill:rgb(66,67,62);"/>
        </g>
        <g transform="matrix(0.971065,-0.0955305,-0.0979044,-0.995196,72.5321,1430.93)">
            <rect x="417.418" y="499.557" width="18.474" height="76.097" style="fill:rgb(66,67,62);"/>
        </g>
        <g transform="matrix(0.956915,-0.190805,-0.195546,-0.980694,167.625,1458.97)">
            <rect x="417.418" y="499.557" width="18.474" height="76.097" style="fill:rgb(66,67,62);"/>
        </g>
        <g transform="matrix(0.934025,-0.282295,-0.28931,-0.957235,263.723,1476.17)">
            <rect x="417.418" y="499.557" width="18.474" height="76.097" style="fill:rgb(66,67,62);"/>
        </g>
    </g>

</g>
<g transform="translate(-310.9547736869981,-340.82596536810365) rotate(-270.0)">

    <g id="curve-left" transform="matrix(1,0,0,1,-396.88,-793.532)">
        <g transform="matrix(0.485955,0,0,-1,194.075,1394.68)">
            <rect x="417.418" y="499.557" width="18.474" height="76.097" style="fill:rgb(66,67,62);"/>
        </g>
        <g transform="matrix(0.449066,-0.185719,-0.382174,-0.92409,551.067,1406.44)">
            <rect x="417.418" y="499.557" width="18.474" height="76.097" style="fill:rgb(66,67,62);"/>
        </g>
        <g transform="matrix(0.000292857,-0.485955,-1.96916,-0.0011867,1530.84,1088.88)">
            <path d="M497.433,498.806C497.433,498.806 464.83,516.918 449.468,536.304C434.067,555.739 435.892,575.654 435.892,575.654L417.418,575.654C417.418,575.654 416.1,555.263 431.498,535.482C447.041,515.512 480.476,497.085 480.476,497.085L497.433,498.806Z" style="fill:rgb(66,67,62);"/>
        </g>
        <g transform="matrix(0.000292857,-0.485955,-1.73431,-0.00104517,1395.12,1043.11)">
            <path d="M497.424,498.991C497.424,498.991 465.339,516.396 449.977,535.782C434.577,555.217 437.928,575.654 437.928,575.654L419.406,575.654C419.406,575.654 416.545,554.561 431.942,534.779C447.486,514.81 480.49,497.042 480.49,497.042L497.424,498.991Z" style="fill:rgb(66,67,62);"/>
        </g>
        <g transform="matrix(0.971065,-0.0955305,-0.0979044,-0.995196,72.5321,1430.93)">
            <rect x="417.418" y="499.557" width="18.474" height="76.097" style="fill:rgb(66,67,62);"/>
        </g>
        <g transform="matrix(0.956915,-0.190805,-0.195546,-0.980694,167.625,1458.97)">
            <rect x="417.418" y="499.557" width="18.474" height="76.097" style="fill:rgb(66,67,62);"/>
        </g>
        <g transform="matrix(0.934025,-0.282295,-0.28931,-0.957235,263.723,1476.17)">
            <rect x="417.418" y="499.557" width="18.474" height="76.097" style="fill:rgb(66,67,62);"/>
        </g>
    </g>

</g>
<g transform="translate(-287.9547736869981,-220.82596536810365) rotate(-292.5)">

    <g id="curve-left" transform="matrix(1,0,0,1,-396.88,-793.532)">
        <g transform="matrix(0.485955,0,0,-1,194.075,1394.68)">
            <rect x="417.418" y="499.557" width="18.474" height="76.097" style="fill:rgb(66,67,62);"/>
        </g>
        <g transform="matrix(0.449066,-0.185719,-0.382174,-0.92409,551.067,1406.44)">
            <rect x="417.418" y="499.557" width="18.474" height="76.097" style="fill:rgb(66,67,62);"/>
        </g>
        <g transform="matrix(0.000292857,-0.485955,-1.96916,-0.0011867,1530.84,1088.88)">
            <path d="M497.433,498.806C497.433,498.806 464.83,516.918 449.468,536.304C434.067,555.739 435.892,575.654 435.892,575.654L417.418,575.654C417.418,575.654 416.1,555.263 431.498,535.482C447.041,515.512 480.476,497.085 480.476,497.085L497.433,498.806Z" style="fill:rgb(66,67,62);"/>
        </g>
        <g transform="matrix(0.000292857,-0.485955,-1.73431,-0.00104517,1395.12,1043.11)">
            <path d="M497.424,498.991C497.424,498.991 465.339,516.396 449.977,535.782C434.577,555.217 437.928,575.654 437.928,575.654L419.406,575.654C419.406,575.654 416.545,554.561 431.942,534.779C447.486,514.81 480.49,497.042 480.49,497.042L497.424,498.991Z" style="fill:rgb(66,67,62);"/>
        </g>
        <g transform="matrix(0.971065,-0.0955305,-0.0979044,-0.995196,72.5321,1430.93)">
            <rect x="417.418" y="499.557" width="18.474" height="76.097" style="fill:rgb(66,67,62);"/>
        </g>
        <g transform="matrix(0.956915,-0.190805,-0.195546,-0.980694,167.625,1458.97)">
            <rect x="417.418" y="499.557" width="18.474" height="76.097" style="fill:rgb(66,67,62);"/>
        </g>
        <g transform="matrix(0.934025,-0.282295,-0.28931,-0.957235,263.723,1476.17)">
            <rect x="417.418" y="499.557" width="18.474" height="76.097" style="fill:rgb(66,67,62);"/>
        </g>
    </g>

</g>
<g transform="translate(-220.7835325554277,-118.76214041114632) rotate(-315.0)">

    <g id="curve-left" transform="matrix(1,0,0,1,-396.88,-793.532)">
        <g transform="matrix(0.485955,0,0,-1,194.075,1394.68)">
            <rect x="417.418" y="499.557" width="18.474" height="76.097" style="fill:rgb(66,67,62);"/>
        </g>
        <g transform="matrix(0.449066,-0.185719,-0.382174,-0.92409,551.067,1406.44)">
            <rect x="417.418" y="499.557" width="18.474" height="76.097" style="fill:rgb(66,67,62);"/>
        </g>
        <g transform="matrix(0.000292857,-0.485955,-1.96916,-0.0011867,1530.84,1088.88)">
            <path d="M497.433,498.806C497.433,498.806 464.83,516.918 449.468,536.304C434.067,555.739 435.892,575.654 435.892,575.654L417.418,575.654C417.418,575.654 416.1,555.263 431.498,535.482C447.041,515.512 480.476,497.085 480.476,497.085L497.433,498.806Z" style="fill:rgb(66,67,62);"/>
        </g>
        <g transform="matrix(0.000292857,-0.485955,-1.73431,-0.00104517,1395.12,1043.11)">
            <path d="M497.424,498.991C497.424,498.991 465.339,516.396 449.977,535.782C434.577,555.217 437.928,575.654 437.928,575.654L419.406,575.654C419.406,575.654 416.545,554.561 431.942,534.779C447.486,514.81 480.49,497.042 480.49,497.042L497.424,498.991Z" style="fill:rgb(66,67,62);"/>
        </g>
        <g transform="matrix(0.971065,-0.0955305,-0.0979044,-0.995196,72.5321,1430.93)">
            <rect x="417.418" y="499.557" width="18.474" height="76.097" style="fill:rgb(66,67,62);"/>
        </g>
        <g transform="matrix(0.956915,-0.190805,-0.195546,-0.980694,167.625,1458.97)">
            <rect x="417.418" y="499.557" width="18.474" height="76.097" style="fill:rgb(66,67,62);"/>
        </g>
        <g transform="matrix(0.934025,-0.282295,-0.28931,-0.957235,263.723,1476.17)">
            <rect x="417.418" y="499.557" width="18.474" height="76.097" style="fill:rgb(66,67,62);"/>
        </g>
    </g>

</g>
<g transform="translate(-119.66726284575144,-50.172782636051195) rotate(-337.5)">

    <g id="curve-left" transform="matrix(1,0,0,1,-396.88,-793.532)">
        <g transform="matrix(0.485955,0,0,-1,194.075,1394.68)">
            <rect x="417.418" y="499.557" width="18.474" height="76.097" style="fill:rgb(66,67,62);"/>
        </g>
        <g transform="matrix(0.449066,-0.185719,-0.382174,-0.92409,551.067,1406.44)">
            <rect x="417.418" y="499.557" width="18.474" height="76.097" style="fill:rgb(66,67,62);"/>
        </g>
        <g transform="matrix(0.000292857,-0.485955,-1.96916,-0.0011867,1530.84,1088.88)">
            <path d="M497.433,498.806C497.433,498.806 464.83,516.918 449.468,536.304C434.067,555.739 435.892,575.654 435.892,575.654L417.418,575.654C417.418,575.654 416.1,555.263 431.498,535.482C447.041,515.512 480.476,497.085 480.476,497.085L497.433,498.806Z" style="fill:rgb(66,67,62);"/>
        </g>
        <g transform="matrix(0.000292857,-0.485955,-1.73431,-0.00104517,1395.12,1043.11)">
            <path d="M497.424,498.991C497.424,498.991 465.339,516.396 449.977,535.782C434.577,555.217 437.928,575.654 437.928,575.654L419.406,575.654C419.406,575.654 416.545,554.561 431.942,534.779C447.486,514.81 480.49,497.042 480.49,497.042L497.424,498.991Z" style="fill:rgb(66,67,62);"/>
        </g>
        <g transform="matrix(0.971065,-0.0955305,-0.0979044,-0.995196,72.5321,1430.93)">
            <rect x="417.418" y="499.557" width="18.474" height="76.097" style="fill:rgb(66,67,62);"/>
        </g>
        <g transform="matrix(0.956915,-0.190805,-0.195546,-0.980694,167.625,1458.97)">
            <rect x="417.418" y="499.557" width="18.474" height="76.097" style="fill:rgb(66,67,62);"/>
        </g>
        <g transform="matrix(0.934025,-0.282295,-0.28931,-0.957235,263.723,1476.17)">
            <rect x="417.418" y="499.557" width="18.474" height="76.097" style="fill:rgb(66,67,62);"/>
        </g>
    </g>

</g>
</g>
</svg>