<?xml version="1.0" encoding="UTF-8"?>
<svg xmlns="http://www.w3.org/2000/svg" xmlns:xlink="http://www.w3.org/1999/xlink"
     width="1600" height="1200" viewBox="-100 -150 300 300">
<defs>
</defs>
<path d="M0,0 A40,40,0,0,1,15.307337294603592,3.0448186995485287 L12.245869835682873,10.435854959638823 A32,32,0,0,0,-4.898587196589413e-16,8.0 L0,0 Z" fill="red" stroke="black" stroke-width="0.5" />
<path d="M15.307337294603592,3.0448186995485287 A40,40,0,0,1,28.2842712474619,11.715728752538098 L22.62741699796952,17.372583002030478 A32,32,0,0,0,12.245869835682873,10.435854959638823 L15.307337294603592,3.0448186995485287 Z" fill="blue" stroke="black" stroke-width="0.5" />
<path d="M28.2842712474619,11.715728752538098 L39.59797974644666,23.029437251522857 L33.94112549695428,28.686291501015237 L22.62741699796952,17.372583002030478 Z" fill="purple" stroke="black" stroke-width="0.5" />
<path d="M39.59797974644666,23.029437251522857 A40,40,0,0,0,52.574913699304965,31.700347304512427 L49.51344624038425,39.09138356460272 A32,32,0,0,1,33.94112549695428,28.686291501015237 L39.59797974644666,23.029437251522857 Z" fill="green" stroke="black" stroke-width="0.5" />
<path d="M52.574913699304965,31.700347304512427 A40,40,0,0,0,67.88225099390856,34.745166004060955 L67.88225099390856,42.745166004060955 A32,32,0,0,1,49.51344624038425,39.09138356460272 L52.574913699304965,31.700347304512427 Z" fill="yellow" stroke="black" stroke-width="0.5" />
<path d="M67.88225099390856,34.745166004060955 L83.88225099390856,34.745166004060955 L83.88225099390856,42.745166004060955 L67.88225099390856,42.745166004060955 Z" fill="orange" stroke="black" stroke-width="0.5" />
<path d="M83.88225099390856,34.745166004060955 A40,40,0,0,1,99.18958828851214,37.78998470360949 L96.12812082959142,45.18102096369979 A32,32,0,0,0,83.88225099390856,42.745166004060955 L83.88225099390856,34.745166004060955 Z" fill="red" stroke="black" stroke-width="0.5" />
<path d="M99.18958828851214,37.78998470360949 A40,40,0,0,1,112.16652224137044,46.46089475659906 L106.50966799187806,52.117749006091444 A32,32,0,0,0,96.12812082959142,45.18102096369979 L99.18958828851214,37.78998470360949 Z" fill="blue" stroke="black" stroke-width="0.5" />
<path d="M112.16652224137044,46.46089475659906 L123.48023074035521,57.77460325558382 L117.82337649086283,63.431457505076196 L106.50966799187806,52.117749006091444 Z" fill="purple" stroke="black" stroke-width="0.5" />
<path d="M123.48023074035521,57.77460325558382 A40,40,0,0,0,136.4571646932135,66.4455133085734 L133.39569723429278,73.83654956866368 A32,32,0,0,1,117.82337649086283,63.431457505076196 L123.48023074035521,57.77460325558382 Z" fill="green" stroke="black" stroke-width="0.5" />
<path d="M136.4571646932135,66.4455133085734 A40,40,0,0,0,151.7645019878171,69.49033200812192 L151.7645019878171,77.49033200812192 A32,32,0,0,1,133.39569723429278,73.83654956866368 L136.4571646932135,66.4455133085734 Z" fill="yellow" stroke="black" stroke-width="0.5" />
</svg>