<?xml version="1.0" encoding="UTF-8"?>
<svg xmlns="http://www.w3.org/2000/svg" xmlns:xlink="http://www.w3.org/1999/xlink"
     width="1600" height="1600" viewBox="-300 -300 600 600">
<defs>
</defs>
<path d="M0,0 L16.0,0.0 L16.0,8.0 L-4.898587196589413e-16,8.0 Z" fill="blue" stroke="black" stroke-width="0.5" />
<path d="M16.0,0.0 L48.0,0.0 L48.0,8.0 L16.0,8.0 Z" fill="red" stroke="black" stroke-width="0.5" />
<path d="M25.6,0.0 A73.96473505508273,73.96473505508273,0,0,0,50.64,14.348357800604013 L47.578532541079284,21.73939406069431 A65.96473505508273,65.96473505508273,0,0,1,25.6,8.0 Z" fill="red" stroke="black" stroke-width="0.5" />
<path d="M0,0 L16.0,0.0 L16.0,8.0 L-4.898587196589413e-16,8.0 Z" fill="blue" stroke="black" stroke-width="0.5" />
<path d="M16.0,0.0 L48.0,0.0 L48.0,8.0 L16.0,8.0 Z" fill="red" stroke="black" stroke-width="0.5" />
<path d="M25.6,0.0 A73.96473505508273,73.96473505508273,0,0,0,50.64,14.348357800604013 L47.578532541079284,21.73939406069431 A65.96473505508273,65.96473505508273,0,0,1,25.6,8.0 Z" fill="red" stroke="black" stroke-width="0.5" />
<path d="M48.0,0.0 L64.0,0.0 L64.0,8.0 L48.0,8.0 Z" fill="green" stroke="black" stroke-width="0.5" />
<path d="M50.64,14.348357800604013 A44,44,0,0,0,67.47807102406395,17.697658370107398 L67.47807102406395,25.697658370107398 A36,36,0,0,1,47.578532541079284,21.73939406069431 L50.64,14.348357800604013 Z" fill="purple" stroke="black" stroke-width="0.5" />
</svg>