<?xml version="1.0" encoding="UTF-8"?>
<svg xmlns="http://www.w3.org/2000/svg" xmlns:xlink="http://www.w3.org/1999/xlink"
     width="1600" height="1600" viewBox="-300 -300 600 600">
<defs>
</defs>
<path d="M0,0 L16.0,0.0 L16.0,8.0 L-4.898587196589413e-16,8.0 Z" fill="blue" stroke="black" stroke-width="0.5" />
<path d="M16.0,0.0 L48.0,0.0 L48.0,8.0 L16.0,8.0 Z" fill="red" stroke="black" stroke-width="0.5" />
<path d="M25.6,0.0 A73.96473505508273,73.96473505508273,0,0,0,50.64,14.348357800604013 L47.578532541079284,21.73939406069431 A65.96473505508273,65.96473505508273,0,0,1,25.6,8.0 Z" fill="red" stroke="black" stroke-width="0.5" />
<path d="M0,0 L16.0,0.0 L16.0,8.0 L-4.898587196589413e-16,8.0 Z" fill="blue" stroke="black" stroke-width="0.5" />
<path d="M16.0,0.0 L48.0,0.0 L48.0,8.0 L16.0,8.0 Z" fill="red" stroke="black" stroke-width="0.5" />
<path d="M25.6,0.0 A73.96473505508273,73.96473505508273,0,0,0,50.64,14.348357800604013 L47.578532541079284,21.73939406069431 A65.96473505508273,65.96473505508273,0,0,1,25.6,8.0 Z" fill="red" stroke="black" stroke-width="0.5" />
<path d="M48.0,0.0 L64.0,0.0 L64.0,8.0 L48.0,8.0 Z" fill="green" stroke="black" stroke-width="0.5" />
<path d="M64.0,0.0 A44,44,0,0,0,80.83807102406395,-3.3493005695033844 L83.89953848298467,4.0417356905869095 A36,36,0,0,1,64.0,8.0 L64.0,0.0 Z" fill="purple" stroke="black" stroke-width="0.5" />
<path d="M80.83807102406395,-3.3493005695033844 A44,44,0,0,0,95.11269837220809,-12.887301627791906 L100.76955262170047,-7.230447378299526 A36,36,0,0,1,83.89953848298467,4.0417356905869095 L80.83807102406395,-3.3493005695033844 Z" fill="purple" stroke="black" stroke-width="0.5" />
<path d="M95.11269837220809,-12.887301627791906 A44,44,0,0,0,104.65069943049662,-27.161928975936046 L112.0417356905869,-24.100461517015326 A36,36,0,0,1,100.76955262170047,-7.230447378299526 L95.11269837220809,-12.887301627791906 Z" fill="purple" stroke="black" stroke-width="0.5" />
<path d="M104.65069943049662,-27.161928975936046 A44,44,0,0,0,108.0,-44.0 L116.0,-44.0 A36,36,0,0,1,112.0417356905869,-24.100461517015326 L104.65069943049662,-27.161928975936046 Z" fill="purple" stroke="black" stroke-width="0.5" />
<path d="M108.0,-44.0 A44,44,0,0,0,104.65069943049662,-60.83807102406395 L112.0417356905869,-63.89953848298467 A36,36,0,0,1,116.0,-44.0 L108.0,-44.0 Z" fill="purple" stroke="black" stroke-width="0.5" />
<path d="M104.65069943049662,-60.83807102406395 A44,44,0,0,0,95.11269837220809,-75.11269837220809 L100.76955262170047,-80.76955262170047 A36,36,0,0,1,112.0417356905869,-63.89953848298467 L104.65069943049662,-60.83807102406395 Z" fill="purple" stroke="black" stroke-width="0.5" />
<path d="M95.11269837220809,-75.11269837220809 A44,44,0,0,0,80.83807102406395,-84.65069943049662 L83.89953848298467,-92.0417356905869 A36,36,0,0,1,100.76955262170047,-80.76955262170047 L95.11269837220809,-75.11269837220809 Z" fill="purple" stroke="black" stroke-width="0.5" />
<path d="M80.83807102406395,-84.65069943049662 A44,44,0,0,0,64.0,-88.0 L64.0,-96.0 A36,36,0,0,1,83.89953848298467,-92.0417356905869 L80.83807102406395,-84.65069943049662 Z" fill="purple" stroke="black" stroke-width="0.5" />
<path d="M64.0,-88.0 L48.0,-88.0 L48.0,-96.0 L64.0,-96.0 Z" fill="green" stroke="black" stroke-width="0.5" />
<path d="M48.0,-88.0 L32.0,-88.0 L32.0,-96.0 L48.0,-96.0 Z" fill="green" stroke="black" stroke-width="0.5" />
<path d="M32.0,-88.0 L16.0,-88.0 L16.0,-96.0 L32.0,-96.0 Z" fill="green" stroke="black" stroke-width="0.5" />
<path d="M16.0,-88.0 L0.0,-88.0 L1.4695761589768238e-15,-96.0 L16.0,-96.0 Z" fill="green" stroke="black" stroke-width="0.5" />
<path d="M0.0,-88.0 A44,44,0,0,0,-16.838071024063954,-84.65069943049662 L-19.899538482984674,-92.0417356905869 A36,36,0,0,1,1.4695761589768238e-15,-96.0 L0.0,-88.0 Z" fill="purple" stroke="black" stroke-width="0.5" />
<path d="M-16.838071024063954,-84.65069943049662 A44,44,0,0,0,-31.112698372208094,-75.11269837220809 L-36.76955262170047,-80.76955262170047 A36,36,0,0,1,-19.899538482984674,-92.0417356905869 L-16.838071024063954,-84.65069943049662 Z" fill="purple" stroke="black" stroke-width="0.5" />
<path d="M-31.112698372208094,-75.11269837220809 A44,44,0,0,0,-40.65069943049663,-60.83807102406392 L-48.041735690586926,-63.89953848298464 A36,36,0,0,1,-36.76955262170047,-80.76955262170047 L-31.112698372208094,-75.11269837220809 Z" fill="purple" stroke="black" stroke-width="0.5" />
<path d="M-40.65069943049663,-60.83807102406392 A44,44,0,0,0,-44.00000000000001,-43.99999999999999 L-52.00000000000001,-43.99999999999999 A36,36,0,0,1,-48.041735690586926,-63.89953848298464 L-40.65069943049663,-60.83807102406392 Z" fill="purple" stroke="black" stroke-width="0.5" />
<path d="M-44.00000000000001,-43.99999999999999 A44,44,0,0,0,-40.650699430496616,-27.161928975936025 L-48.04173569058691,-24.100461517015304 A36,36,0,0,1,-52.00000000000001,-43.99999999999999 L-44.00000000000001,-43.99999999999999 Z" fill="purple" stroke="black" stroke-width="0.5" />
<path d="M-40.650699430496616,-27.161928975936025 A44,44,0,0,0,-31.112698372208104,-12.887301627791903 L-36.769552621700484,-7.230447378299524 A36,36,0,0,1,-48.04173569058691,-24.100461517015304 L-40.650699430496616,-27.161928975936025 Z" fill="purple" stroke="black" stroke-width="0.5" />
<path d="M-31.112698372208104,-12.887301627791903 A44,44,0,0,0,-16.838071024063947,-3.349300569503363 L-19.899538482984664,4.041735690586932 A36,36,0,0,1,-36.769552621700484,-7.230447378299524 L-31.112698372208104,-12.887301627791903 Z" fill="purple" stroke="black" stroke-width="0.5" />
<path d="M-16.838071024063947,-3.349300569503363 A44,44,0,0,0,-1.788231919009771e-14,1.4210854715202004e-14 L-2.0331612788392417e-14,8.000000000000014 A36,36,0,0,1,-19.899538482984664,4.041735690586932 L-16.838071024063947,-3.349300569503363 Z" fill="purple" stroke="black" stroke-width="0.5" />
<path d="M50.64,14.348357800604013 A44,44,0,0,0,67.47807102406395,17.697658370107398 L67.47807102406395,25.697658370107398 A36,36,0,0,1,47.578532541079284,21.73939406069431 L50.64,14.348357800604013 Z" fill="purple" stroke="black" stroke-width="0.5" />
</svg>