<?xml version="1.0" encoding="UTF-8"?>
<svg xmlns="http://www.w3.org/2000/svg" xmlns:xlink="http://www.w3.org/1999/xlink"
     width="1600" height="1600" viewBox="-300 -300 600 600">
<defs>
</defs>
<path d="M0,0 L16.0,0.0 L16.0,8.0 L-4.898587196589413e-16,8.0 Z" fill="blue" stroke="black" stroke-width="0.5" />
<path d="M16.0,0.0 L48.0,0.0 L48.0,8.0 L16.0,8.0 Z" fill="red" stroke="black" stroke-width="0.5" />
<path d="M25.6,0.0 L45.564145040361176,12.245869835682873 L42.50267758144046,19.636906095773167 L25.6,8.0 Z" fill="red" stroke="black" stroke-width="0.5" />
<path d="M0,0 L16.0,0.0 L16.0,8.0 L-4.898587196589413e-16,8.0 Z" fill="blue" stroke="black" stroke-width="0.5" />
<path d="M16.0,0.0 L48.0,0.0 L48.0,8.0 L16.0,8.0 Z" fill="red" stroke="black" stroke-width="0.5" />
<path d="M25.6,0.0 L45.564145040361176,12.245869835682873 L42.50267758144046,19.636906095773167 L25.6,8.0 Z" fill="red" stroke="black" stroke-width="0.5" />
<path d="M48.0,0.0 L64.0,0.0 L64.0,8.0 L48.0,8.0 Z" fill="green" stroke="black" stroke-width="0.5" />
<path d="M64.0,0.0 L80.0,0.0 L80.0,8.0 L64.0,8.0 Z" fill="green" stroke="black" stroke-width="0.5" />
<path d="M45.564145040361176,12.245869835682873 A40,40,0,0,0,60.87148233496477,15.290688535231403 L60.87148233496477,23.290688535231403 A32,32,0,0,1,42.50267758144046,19.636906095773167 L45.564145040361176,12.245869835682873 Z" fill="purple" stroke="black" stroke-width="0.5" />
<path d="M60.87148233496477,15.290688535231403 L76.87148233496477,15.290688535231403 L76.87148233496477,23.290688535231403 L60.87148233496477,23.290688535231403 Z" fill="green" stroke="black" stroke-width="0.5" />
</svg>