<?xml version="1.0" encoding="UTF-8"?>
<svg xmlns="http://www.w3.org/2000/svg" xmlns:xlink="http://www.w3.org/1999/xlink"
     width="1600" height="1200" viewBox="-100 -150 300 300">
<defs>
</defs>
<path d="M0,0 A40,40,0,0,1,15.307337294603592,3.0448186995485287 L12.245869835682873,10.435854959638823 A32,32,0,0,0,-4.898587196589413e-16,8.0 L0,0 Z" fill="red" stroke="black" stroke-width="0.5" />
<path d="M15.307337294603592,3.0448186995485287 A40,40,0,0,1,28.2842712474619,11.715728752538098 L22.62741699796952,17.372583002030478 A32,32,0,0,0,12.245869835682873,10.435854959638823 L15.307337294603592,3.0448186995485287 Z" fill="blue" stroke="black" stroke-width="0.5" />
<path d="M28.2842712474619,11.715728752538098 A40,40,0,0,1,36.95518130045147,24.69266270539641 L29.564145040361176,27.754130164317125 A32,32,0,0,0,22.62741699796952,17.372583002030478 L28.2842712474619,11.715728752538098 Z" fill="green" stroke="black" stroke-width="0.5" />
<path d="M36.95518130045147,24.69266270539641 A40,40,0,0,1,40.0,40.0 L32.0,40.0 A32,32,0,0,0,29.564145040361176,27.754130164317125 L36.95518130045147,24.69266270539641 Z" fill="yellow" stroke="black" stroke-width="0.5" />
<path d="M40.0,40.0 L40.0,56.0 L32.0,56.0 L32.0,40.0 Z" fill="purple" stroke="black" stroke-width="0.5" />
<path d="M40.0,56.0 L40.0,72.0 L32.0,72.0 L32.0,56.0 Z" fill="orange" stroke="black" stroke-width="0.5" />
<path d="M40.0,72.0 A40,40,0,0,1,36.95518130045147,87.30733729460358 L29.564145040361176,84.24586983568287 A32,32,0,0,0,32.0,72.0 L40.0,72.0 Z" fill="red" stroke="black" stroke-width="0.5" />
<path d="M36.95518130045147,87.30733729460358 A40,40,0,0,1,28.284271247461902,100.2842712474619 L22.627416997969522,94.62741699796952 A32,32,0,0,0,29.564145040361176,84.24586983568287 L36.95518130045147,87.30733729460358 Z" fill="blue" stroke="black" stroke-width="0.5" />
<path d="M28.284271247461902,100.2842712474619 L16.970562748477143,111.59797974644667 L11.313708498984763,105.94112549695429 L22.627416997969522,94.62741699796952 Z" fill="purple" stroke="black" stroke-width="0.5" />
<path d="M16.970562748477143,111.59797974644667 L5.656854249492383,122.91168824543144 L2.6645352591003757e-15,117.25483399593905 L11.313708498984763,105.94112549695429 Z" fill="orange" stroke="black" stroke-width="0.5" />
<path d="M5.656854249492383,122.91168824543144 A40,40,0,0,1,-7.3200797033659235,131.582598298421 L-10.381547162286642,124.19156203833072 A32,32,0,0,0,2.6645352591003757e-15,117.25483399593905 L5.656854249492383,122.91168824543144 Z" fill="green" stroke="black" stroke-width="0.5" />
<path d="M-7.3200797033659235,131.582598298421 A40,40,0,0,1,-22.627416997969515,134.62741699796953 L-22.627416997969515,126.62741699796953 A32,32,0,0,0,-10.381547162286642,124.19156203833072 L-7.3200797033659235,131.582598298421 Z" fill="yellow" stroke="black" stroke-width="0.5" />
</svg>